ISO-10303-21;
HEADER;
FILE_DESCRIPTION(('FreeCAD Model'),'2;1');
FILE_NAME('Open CASCADE Shape Model','2025-10-13T00:54:12',(''),(''),
  'Open CASCADE STEP processor 7.9','FreeCAD','Unknown');
FILE_SCHEMA(('AUTOMOTIVE_DESIGN { 1 0 10303 214 1 1 1 1 }'));
ENDSEC;
DATA;
#1 = APPLICATION_PROTOCOL_DEFINITION('international standard',
  'automotive_design',2000,#2);
#2 = APPLICATION_CONTEXT(
  'core data for automotive mechanical design processes');
#3 = SHAPE_DEFINITION_REPRESENTATION(#4,#10);
#4 = PRODUCT_DEFINITION_SHAPE('','',#5);
#5 = PRODUCT_DEFINITION('design','',#6,#9);
#6 = PRODUCT_DEFINITION_FORMATION('','',#7);
#7 = PRODUCT('button','button','',(#8));
#8 = PRODUCT_CONTEXT('',#2,'mechanical');
#9 = PRODUCT_DEFINITION_CONTEXT('part definition',#2,'design');
#10 = ADVANCED_BREP_SHAPE_REPRESENTATION('',(#11,#15),#1938);
#11 = AXIS2_PLACEMENT_3D('',#12,#13,#14);
#12 = CARTESIAN_POINT('',(0.,0.,0.));
#13 = DIRECTION('',(0.,0.,1.));
#14 = DIRECTION('',(1.,0.,-0.));
#15 = MANIFOLD_SOLID_BREP('',#16);
#16 = CLOSED_SHELL('',(#17,#155,#188,#213,#238,#263,#288,#313,#338,#355,
    #386,#410,#434,#458,#482,#506,#530,#547,#578,#636,#694,#718,#742,
    #800,#858,#875,#902,#918,#981,#1005,#1061,#1078,#1109,#1165,#1189,
    #1238,#1269,#1325,#1349,#1398,#1461,#1485,#1541,#1558,#1583,#1605,
    #1617,#1634,#1651,#1663,#1680,#1702,#1714,#1731,#1743,#1760,#1782,
    #1794,#1811,#1823,#1845,#1857,#1874,#1891,#1903,#1929));
#17 = ADVANCED_FACE('',(#18,#84),#150,.T.);
#18 = FACE_BOUND('',#19,.T.);
#19 = EDGE_LOOP('',(#20,#30,#38,#46,#54,#62,#70,#78));
#20 = ORIENTED_EDGE('',*,*,#21,.T.);
#21 = EDGE_CURVE('',#22,#24,#26,.T.);
#22 = VERTEX_POINT('',#23);
#23 = CARTESIAN_POINT('',(1.291421356239,1.E-01,0.9));
#24 = VERTEX_POINT('',#25);
#25 = CARTESIAN_POINT('',(3.808578643758,1.E-01,0.9));
#26 = LINE('',#27,#28);
#27 = CARTESIAN_POINT('',(1.250000000001,1.E-01,0.9));
#28 = VECTOR('',#29,1.);
#29 = DIRECTION('',(1.,0.,0.));
#30 = ORIENTED_EDGE('',*,*,#31,.T.);
#31 = EDGE_CURVE('',#24,#32,#34,.T.);
#32 = VERTEX_POINT('',#33);
#33 = CARTESIAN_POINT('',(5.,1.291421356237,0.9));
#34 = LINE('',#35,#36);
#35 = CARTESIAN_POINT('',(3.779289321876,7.07106781188E-02,0.9));
#36 = VECTOR('',#37,1.);
#37 = DIRECTION('',(0.707106781188,0.707106781185,0.));
#38 = ORIENTED_EDGE('',*,*,#39,.T.);
#39 = EDGE_CURVE('',#32,#40,#42,.T.);
#40 = VERTEX_POINT('',#41);
#41 = CARTESIAN_POINT('',(5.,3.808578643762,0.9));
#42 = LINE('',#43,#44);
#43 = CARTESIAN_POINT('',(5.,1.25,0.9));
#44 = VECTOR('',#45,1.);
#45 = DIRECTION('',(0.,1.,0.));
#46 = ORIENTED_EDGE('',*,*,#47,.F.);
#47 = EDGE_CURVE('',#48,#40,#50,.T.);
#48 = VERTEX_POINT('',#49);
#49 = CARTESIAN_POINT('',(3.808578643759,5.,0.9));
#50 = LINE('',#51,#52);
#51 = CARTESIAN_POINT('',(3.779289321877,5.029289321881,0.9));
#52 = VECTOR('',#53,1.);
#53 = DIRECTION('',(0.707106781188,-0.707106781185,0.));
#54 = ORIENTED_EDGE('',*,*,#55,.T.);
#55 = EDGE_CURVE('',#48,#56,#58,.T.);
#56 = VERTEX_POINT('',#57);
#57 = CARTESIAN_POINT('',(1.29142135624,5.,0.9));
#58 = LINE('',#59,#60);
#59 = CARTESIAN_POINT('',(3.849999999996,5.,0.9));
#60 = VECTOR('',#61,1.);
#61 = DIRECTION('',(-1.,0.,0.));
#62 = ORIENTED_EDGE('',*,*,#63,.F.);
#63 = EDGE_CURVE('',#64,#56,#66,.T.);
#64 = VERTEX_POINT('',#65);
#65 = CARTESIAN_POINT('',(1.E-01,3.808578643761,0.9));
#66 = LINE('',#67,#68);
#67 = CARTESIAN_POINT('',(7.071067811861E-02,3.77928932188,0.9));
#68 = VECTOR('',#69,1.);
#69 = DIRECTION('',(0.707106781187,0.707106781186,0.));
#70 = ORIENTED_EDGE('',*,*,#71,.T.);
#71 = EDGE_CURVE('',#64,#72,#74,.T.);
#72 = VERTEX_POINT('',#73);
#73 = CARTESIAN_POINT('',(0.1,1.29142135624,0.9));
#74 = LINE('',#75,#76);
#75 = CARTESIAN_POINT('',(1.E-01,3.849999999999,0.9));
#76 = VECTOR('',#77,1.);
#77 = DIRECTION('',(0.,-1.,0.));
#78 = ORIENTED_EDGE('',*,*,#79,.F.);
#79 = EDGE_CURVE('',#22,#72,#80,.T.);
#80 = LINE('',#81,#82);
#81 = CARTESIAN_POINT('',(1.32071067812,7.071067811861E-02,0.9));
#82 = VECTOR('',#83,1.);
#83 = DIRECTION('',(-0.707106781186,0.707106781187,0.));
#84 = FACE_BOUND('',#85,.T.);
#85 = EDGE_LOOP('',(#86,#96,#104,#112,#120,#128,#136,#144));
#86 = ORIENTED_EDGE('',*,*,#87,.T.);
#87 = EDGE_CURVE('',#88,#90,#92,.T.);
#88 = VERTEX_POINT('',#89);
#89 = CARTESIAN_POINT('',(0.735762521641,3.476173345127,0.9));
#90 = VERTEX_POINT('',#91);
#91 = CARTESIAN_POINT('',(1.62382665487,4.364237478357,0.9));
#92 = LINE('',#93,#94);
#93 = CARTESIAN_POINT('',(0.735762521641,3.476173345127,0.9));
#94 = VECTOR('',#95,1.);
#95 = DIRECTION('',(0.707106781186,0.707106781187,0.));
#96 = ORIENTED_EDGE('',*,*,#97,.T.);
#97 = EDGE_CURVE('',#90,#98,#100,.T.);
#98 = VERTEX_POINT('',#99);
#99 = CARTESIAN_POINT('',(3.547698388412,4.364237478357,0.9));
#100 = LINE('',#101,#102);
#101 = CARTESIAN_POINT('',(1.62382665487,4.364237478357,0.9));
#102 = VECTOR('',#103,1.);
#103 = DIRECTION('',(1.,0.,0.));
#104 = ORIENTED_EDGE('',*,*,#105,.T.);
#105 = EDGE_CURVE('',#98,#106,#108,.T.);
#106 = VERTEX_POINT('',#107);
#107 = CARTESIAN_POINT('',(4.435762521642,3.476173345129,0.9));
#108 = LINE('',#109,#110);
#109 = CARTESIAN_POINT('',(3.547698388412,4.364237478357,0.9));
#110 = VECTOR('',#111,1.);
#111 = DIRECTION('',(0.707106781187,-0.707106781186,0.));
#112 = ORIENTED_EDGE('',*,*,#113,.T.);
#113 = EDGE_CURVE('',#106,#114,#116,.T.);
#114 = VERTEX_POINT('',#115);
#115 = CARTESIAN_POINT('',(4.435762521642,1.552301611587,0.9));
#116 = LINE('',#117,#118);
#117 = CARTESIAN_POINT('',(4.435762521642,3.476173345129,0.9));
#118 = VECTOR('',#119,1.);
#119 = DIRECTION('',(0.,-1.,0.));
#120 = ORIENTED_EDGE('',*,*,#121,.T.);
#121 = EDGE_CURVE('',#114,#122,#124,.T.);
#122 = VERTEX_POINT('',#123);
#123 = CARTESIAN_POINT('',(3.547698388413,0.664237478357,0.9));
#124 = LINE('',#125,#126);
#125 = CARTESIAN_POINT('',(4.435762521642,1.552301611587,0.9));
#126 = VECTOR('',#127,1.);
#127 = DIRECTION('',(-0.707106781186,-0.707106781187,0.));
#128 = ORIENTED_EDGE('',*,*,#129,.T.);
#129 = EDGE_CURVE('',#122,#130,#132,.T.);
#130 = VERTEX_POINT('',#131);
#131 = CARTESIAN_POINT('',(1.623826654872,0.664237478357,0.9));
#132 = LINE('',#133,#134);
#133 = CARTESIAN_POINT('',(3.547698388413,0.664237478357,0.9));
#134 = VECTOR('',#135,1.);
#135 = DIRECTION('',(-1.,0.,0.));
#136 = ORIENTED_EDGE('',*,*,#137,.T.);
#137 = EDGE_CURVE('',#130,#138,#140,.T.);
#138 = VERTEX_POINT('',#139);
#139 = CARTESIAN_POINT('',(0.735762521641,1.552301611586,0.9));
#140 = LINE('',#141,#142);
#141 = CARTESIAN_POINT('',(1.623826654872,0.664237478357,0.9));
#142 = VECTOR('',#143,1.);
#143 = DIRECTION('',(-0.707106781187,0.707106781186,0.));
#144 = ORIENTED_EDGE('',*,*,#145,.T.);
#145 = EDGE_CURVE('',#138,#88,#146,.T.);
#146 = LINE('',#147,#148);
#147 = CARTESIAN_POINT('',(0.735762521641,1.552301611586,0.9));
#148 = VECTOR('',#149,1.);
#149 = DIRECTION('',(0.,1.,0.));
#150 = PLANE('',#151);
#151 = AXIS2_PLACEMENT_3D('',#152,#153,#154);
#152 = CARTESIAN_POINT('',(2.55,2.55,0.9));
#153 = DIRECTION('',(0.,0.,1.));
#154 = DIRECTION('',(1.,0.,0.));
#155 = ADVANCED_FACE('',(#156),#183,.T.);
#156 = FACE_BOUND('',#157,.T.);
#157 = EDGE_LOOP('',(#158,#167,#175,#182));
#158 = ORIENTED_EDGE('',*,*,#159,.T.);
#159 = EDGE_CURVE('',#22,#160,#162,.T.);
#160 = VERTEX_POINT('',#161);
#161 = CARTESIAN_POINT('',(1.250000000001,-1.387778780781E-17,0.8));
#162 = ELLIPSE('',#163,0.108239220029,0.1);
#163 = AXIS2_PLACEMENT_3D('',#164,#165,#166);
#164 = CARTESIAN_POINT('',(1.291421356239,1.E-01,0.8));
#165 = DIRECTION('',(0.923879532511,-0.382683432365,0.));
#166 = DIRECTION('',(0.382683432365,0.923879532511,0.));
#167 = ORIENTED_EDGE('',*,*,#168,.T.);
#168 = EDGE_CURVE('',#160,#169,#171,.T.);
#169 = VERTEX_POINT('',#170);
#170 = CARTESIAN_POINT('',(3.849999999995,-1.387778780781E-17,0.8));
#171 = LINE('',#172,#173);
#172 = CARTESIAN_POINT('',(1.250000000001,-1.387778780781E-17,0.8));
#173 = VECTOR('',#174,1.);
#174 = DIRECTION('',(1.,0.,0.));
#175 = ORIENTED_EDGE('',*,*,#176,.F.);
#176 = EDGE_CURVE('',#24,#169,#177,.T.);
#177 = ELLIPSE('',#178,0.108239220029,0.1);
#178 = AXIS2_PLACEMENT_3D('',#179,#180,#181);
#179 = CARTESIAN_POINT('',(3.808578643758,1.E-01,0.8));
#180 = DIRECTION('',(0.923879532512,0.382683432364,0.));
#181 = DIRECTION('',(0.382683432364,-0.923879532512,0.));
#182 = ORIENTED_EDGE('',*,*,#21,.F.);
#183 = CYLINDRICAL_SURFACE('',#184,0.1);
#184 = AXIS2_PLACEMENT_3D('',#185,#186,#187);
#185 = CARTESIAN_POINT('',(1.250000000001,1.E-01,0.8));
#186 = DIRECTION('',(1.,0.,0.));
#187 = DIRECTION('',(0.,0.,1.));
#188 = ADVANCED_FACE('',(#189),#208,.T.);
#189 = FACE_BOUND('',#190,.F.);
#190 = EDGE_LOOP('',(#191,#192,#200,#207));
#191 = ORIENTED_EDGE('',*,*,#159,.T.);
#192 = ORIENTED_EDGE('',*,*,#193,.T.);
#193 = EDGE_CURVE('',#160,#194,#196,.T.);
#194 = VERTEX_POINT('',#195);
#195 = CARTESIAN_POINT('',(-2.22044604925E-16,1.250000000003,0.8));
#196 = LINE('',#197,#198);
#197 = CARTESIAN_POINT('',(1.250000000001,-2.359223927328E-16,0.8));
#198 = VECTOR('',#199,1.);
#199 = DIRECTION('',(-0.707106781186,0.707106781187,0.));
#200 = ORIENTED_EDGE('',*,*,#201,.F.);
#201 = EDGE_CURVE('',#72,#194,#202,.T.);
#202 = ELLIPSE('',#203,0.108239220029,0.1);
#203 = AXIS2_PLACEMENT_3D('',#204,#205,#206);
#204 = CARTESIAN_POINT('',(0.1,1.29142135624,0.8));
#205 = DIRECTION('',(0.382683432365,-0.923879532511,0.));
#206 = DIRECTION('',(-0.923879532511,-0.382683432365,0.));
#207 = ORIENTED_EDGE('',*,*,#79,.F.);
#208 = CYLINDRICAL_SURFACE('',#209,0.1);
#209 = AXIS2_PLACEMENT_3D('',#210,#211,#212);
#210 = CARTESIAN_POINT('',(1.32071067812,7.071067811861E-02,0.8));
#211 = DIRECTION('',(-0.707106781186,0.707106781187,0.));
#212 = DIRECTION('',(0.,0.,1.));
#213 = ADVANCED_FACE('',(#214),#233,.T.);
#214 = FACE_BOUND('',#215,.T.);
#215 = EDGE_LOOP('',(#216,#217,#225,#232));
#216 = ORIENTED_EDGE('',*,*,#176,.T.);
#217 = ORIENTED_EDGE('',*,*,#218,.T.);
#218 = EDGE_CURVE('',#169,#219,#221,.T.);
#219 = VERTEX_POINT('',#220);
#220 = CARTESIAN_POINT('',(5.1,1.25,0.8));
#221 = LINE('',#222,#223);
#222 = CARTESIAN_POINT('',(3.849999999995,-3.330669073875E-16,0.8));
#223 = VECTOR('',#224,1.);
#224 = DIRECTION('',(0.707106781188,0.707106781185,0.));
#225 = ORIENTED_EDGE('',*,*,#226,.F.);
#226 = EDGE_CURVE('',#32,#219,#227,.T.);
#227 = ELLIPSE('',#228,0.108239220029,0.1);
#228 = AXIS2_PLACEMENT_3D('',#229,#230,#231);
#229 = CARTESIAN_POINT('',(5.,1.291421356237,0.8));
#230 = DIRECTION('',(0.382683432366,0.923879532511,-0.));
#231 = DIRECTION('',(-0.923879532511,0.382683432366,0.));
#232 = ORIENTED_EDGE('',*,*,#31,.F.);
#233 = CYLINDRICAL_SURFACE('',#234,0.1);
#234 = AXIS2_PLACEMENT_3D('',#235,#236,#237);
#235 = CARTESIAN_POINT('',(3.779289321876,7.07106781188E-02,0.8));
#236 = DIRECTION('',(0.707106781188,0.707106781185,0.));
#237 = DIRECTION('',(0.,0.,1.));
#238 = ADVANCED_FACE('',(#239),#258,.T.);
#239 = FACE_BOUND('',#240,.T.);
#240 = EDGE_LOOP('',(#241,#250,#256,#257));
#241 = ORIENTED_EDGE('',*,*,#242,.T.);
#242 = EDGE_CURVE('',#64,#243,#245,.T.);
#243 = VERTEX_POINT('',#244);
#244 = CARTESIAN_POINT('',(-1.387778780781E-17,3.849999999999,0.8));
#245 = ELLIPSE('',#246,0.108239220029,0.1);
#246 = AXIS2_PLACEMENT_3D('',#247,#248,#249);
#247 = CARTESIAN_POINT('',(1.E-01,3.808578643761,0.8));
#248 = DIRECTION('',(-0.382683432365,-0.923879532511,0.));
#249 = DIRECTION('',(0.923879532511,-0.382683432365,0.));
#250 = ORIENTED_EDGE('',*,*,#251,.T.);
#251 = EDGE_CURVE('',#243,#194,#252,.T.);
#252 = LINE('',#253,#254);
#253 = CARTESIAN_POINT('',(-1.387778780781E-17,3.849999999999,0.8));
#254 = VECTOR('',#255,1.);
#255 = DIRECTION('',(0.,-1.,0.));
#256 = ORIENTED_EDGE('',*,*,#201,.F.);
#257 = ORIENTED_EDGE('',*,*,#71,.F.);
#258 = CYLINDRICAL_SURFACE('',#259,0.1);
#259 = AXIS2_PLACEMENT_3D('',#260,#261,#262);
#260 = CARTESIAN_POINT('',(1.E-01,3.849999999999,0.8));
#261 = DIRECTION('',(0.,-1.,0.));
#262 = DIRECTION('',(0.,0.,1.));
#263 = ADVANCED_FACE('',(#264),#283,.T.);
#264 = FACE_BOUND('',#265,.T.);
#265 = EDGE_LOOP('',(#266,#267,#275,#282));
#266 = ORIENTED_EDGE('',*,*,#226,.T.);
#267 = ORIENTED_EDGE('',*,*,#268,.T.);
#268 = EDGE_CURVE('',#219,#269,#271,.T.);
#269 = VERTEX_POINT('',#270);
#270 = CARTESIAN_POINT('',(5.1,3.85,0.8));
#271 = LINE('',#272,#273);
#272 = CARTESIAN_POINT('',(5.1,1.25,0.8));
#273 = VECTOR('',#274,1.);
#274 = DIRECTION('',(0.,1.,0.));
#275 = ORIENTED_EDGE('',*,*,#276,.F.);
#276 = EDGE_CURVE('',#40,#269,#277,.T.);
#277 = ELLIPSE('',#278,0.108239220029,0.1);
#278 = AXIS2_PLACEMENT_3D('',#279,#280,#281);
#279 = CARTESIAN_POINT('',(5.,3.808578643762,0.8));
#280 = DIRECTION('',(-0.382683432366,0.923879532511,0.));
#281 = DIRECTION('',(0.923879532511,0.382683432366,0.));
#282 = ORIENTED_EDGE('',*,*,#39,.F.);
#283 = CYLINDRICAL_SURFACE('',#284,0.1);
#284 = AXIS2_PLACEMENT_3D('',#285,#286,#287);
#285 = CARTESIAN_POINT('',(5.,1.25,0.8));
#286 = DIRECTION('',(0.,1.,0.));
#287 = DIRECTION('',(0.,0.,1.));
#288 = ADVANCED_FACE('',(#289),#308,.T.);
#289 = FACE_BOUND('',#290,.F.);
#290 = EDGE_LOOP('',(#291,#292,#300,#307));
#291 = ORIENTED_EDGE('',*,*,#242,.T.);
#292 = ORIENTED_EDGE('',*,*,#293,.T.);
#293 = EDGE_CURVE('',#243,#294,#296,.T.);
#294 = VERTEX_POINT('',#295);
#295 = CARTESIAN_POINT('',(1.250000000003,5.1,0.8));
#296 = LINE('',#297,#298);
#297 = CARTESIAN_POINT('',(-1.387778780781E-17,3.849999999999,0.8));
#298 = VECTOR('',#299,1.);
#299 = DIRECTION('',(0.707106781187,0.707106781186,0.));
#300 = ORIENTED_EDGE('',*,*,#301,.F.);
#301 = EDGE_CURVE('',#56,#294,#302,.T.);
#302 = ELLIPSE('',#303,0.108239220029,0.1);
#303 = AXIS2_PLACEMENT_3D('',#304,#305,#306);
#304 = CARTESIAN_POINT('',(1.29142135624,5.,0.8));
#305 = DIRECTION('',(-0.923879532511,-0.382683432365,-0.));
#306 = DIRECTION('',(-0.382683432365,0.923879532511,0.));
#307 = ORIENTED_EDGE('',*,*,#63,.F.);
#308 = CYLINDRICAL_SURFACE('',#309,0.1);
#309 = AXIS2_PLACEMENT_3D('',#310,#311,#312);
#310 = CARTESIAN_POINT('',(7.071067811861E-02,3.77928932188,0.8));
#311 = DIRECTION('',(0.707106781187,0.707106781186,0.));
#312 = DIRECTION('',(0.,0.,1.));
#313 = ADVANCED_FACE('',(#314),#333,.T.);
#314 = FACE_BOUND('',#315,.F.);
#315 = EDGE_LOOP('',(#316,#325,#331,#332));
#316 = ORIENTED_EDGE('',*,*,#317,.T.);
#317 = EDGE_CURVE('',#48,#318,#320,.T.);
#318 = VERTEX_POINT('',#319);
#319 = CARTESIAN_POINT('',(3.849999999996,5.1,0.8));
#320 = ELLIPSE('',#321,0.108239220029,0.1);
#321 = AXIS2_PLACEMENT_3D('',#322,#323,#324);
#322 = CARTESIAN_POINT('',(3.808578643759,5.,0.8));
#323 = DIRECTION('',(-0.923879532512,0.382683432364,0.));
#324 = DIRECTION('',(-0.382683432364,-0.923879532512,0.));
#325 = ORIENTED_EDGE('',*,*,#326,.T.);
#326 = EDGE_CURVE('',#318,#269,#327,.T.);
#327 = LINE('',#328,#329);
#328 = CARTESIAN_POINT('',(3.849999999996,5.1,0.8));
#329 = VECTOR('',#330,1.);
#330 = DIRECTION('',(0.707106781188,-0.707106781185,0.));
#331 = ORIENTED_EDGE('',*,*,#276,.F.);
#332 = ORIENTED_EDGE('',*,*,#47,.F.);
#333 = CYLINDRICAL_SURFACE('',#334,0.1);
#334 = AXIS2_PLACEMENT_3D('',#335,#336,#337);
#335 = CARTESIAN_POINT('',(3.779289321877,5.029289321881,0.8));
#336 = DIRECTION('',(0.707106781188,-0.707106781185,0.));
#337 = DIRECTION('',(0.,0.,1.));
#338 = ADVANCED_FACE('',(#339),#350,.T.);
#339 = FACE_BOUND('',#340,.T.);
#340 = EDGE_LOOP('',(#341,#342,#348,#349));
#341 = ORIENTED_EDGE('',*,*,#317,.T.);
#342 = ORIENTED_EDGE('',*,*,#343,.T.);
#343 = EDGE_CURVE('',#318,#294,#344,.T.);
#344 = LINE('',#345,#346);
#345 = CARTESIAN_POINT('',(3.849999999996,5.1,0.8));
#346 = VECTOR('',#347,1.);
#347 = DIRECTION('',(-1.,0.,0.));
#348 = ORIENTED_EDGE('',*,*,#301,.F.);
#349 = ORIENTED_EDGE('',*,*,#55,.F.);
#350 = CYLINDRICAL_SURFACE('',#351,0.1);
#351 = AXIS2_PLACEMENT_3D('',#352,#353,#354);
#352 = CARTESIAN_POINT('',(3.849999999996,5.,0.8));
#353 = DIRECTION('',(-1.,0.,0.));
#354 = DIRECTION('',(0.,0.,1.));
#355 = ADVANCED_FACE('',(#356),#381,.T.);
#356 = FACE_BOUND('',#357,.T.);
#357 = EDGE_LOOP('',(#358,#366,#374,#380));
#358 = ORIENTED_EDGE('',*,*,#359,.T.);
#359 = EDGE_CURVE('',#88,#360,#362,.T.);
#360 = VERTEX_POINT('',#361);
#361 = CARTESIAN_POINT('',(0.735762521641,3.476173345127,1.1));
#362 = LINE('',#363,#364);
#363 = CARTESIAN_POINT('',(0.735762521641,3.476173345127,0.9));
#364 = VECTOR('',#365,1.);
#365 = DIRECTION('',(0.,0.,1.));
#366 = ORIENTED_EDGE('',*,*,#367,.T.);
#367 = EDGE_CURVE('',#360,#368,#370,.T.);
#368 = VERTEX_POINT('',#369);
#369 = CARTESIAN_POINT('',(1.62382665487,4.364237478357,1.1));
#370 = LINE('',#371,#372);
#371 = CARTESIAN_POINT('',(0.735762521641,3.476173345127,1.1));
#372 = VECTOR('',#373,1.);
#373 = DIRECTION('',(0.707106781186,0.707106781187,0.));
#374 = ORIENTED_EDGE('',*,*,#375,.F.);
#375 = EDGE_CURVE('',#90,#368,#376,.T.);
#376 = LINE('',#377,#378);
#377 = CARTESIAN_POINT('',(1.62382665487,4.364237478357,0.9));
#378 = VECTOR('',#379,1.);
#379 = DIRECTION('',(0.,0.,1.));
#380 = ORIENTED_EDGE('',*,*,#87,.F.);
#381 = PLANE('',#382);
#382 = AXIS2_PLACEMENT_3D('',#383,#384,#385);
#383 = CARTESIAN_POINT('',(0.735762521641,3.476173345127,0.9));
#384 = DIRECTION('',(-0.707106781187,0.707106781186,0.));
#385 = DIRECTION('',(0.707106781186,0.707106781187,0.));
#386 = ADVANCED_FACE('',(#387),#405,.T.);
#387 = FACE_BOUND('',#388,.T.);
#388 = EDGE_LOOP('',(#389,#397,#403,#404));
#389 = ORIENTED_EDGE('',*,*,#390,.T.);
#390 = EDGE_CURVE('',#138,#391,#393,.T.);
#391 = VERTEX_POINT('',#392);
#392 = CARTESIAN_POINT('',(0.735762521641,1.552301611586,1.1));
#393 = LINE('',#394,#395);
#394 = CARTESIAN_POINT('',(0.735762521641,1.552301611586,0.9));
#395 = VECTOR('',#396,1.);
#396 = DIRECTION('',(0.,0.,1.));
#397 = ORIENTED_EDGE('',*,*,#398,.T.);
#398 = EDGE_CURVE('',#391,#360,#399,.T.);
#399 = LINE('',#400,#401);
#400 = CARTESIAN_POINT('',(0.735762521641,1.552301611586,1.1));
#401 = VECTOR('',#402,1.);
#402 = DIRECTION('',(0.,1.,0.));
#403 = ORIENTED_EDGE('',*,*,#359,.F.);
#404 = ORIENTED_EDGE('',*,*,#145,.F.);
#405 = PLANE('',#406);
#406 = AXIS2_PLACEMENT_3D('',#407,#408,#409);
#407 = CARTESIAN_POINT('',(0.735762521641,1.552301611586,0.9));
#408 = DIRECTION('',(-1.,0.,0.));
#409 = DIRECTION('',(0.,1.,0.));
#410 = ADVANCED_FACE('',(#411),#429,.T.);
#411 = FACE_BOUND('',#412,.T.);
#412 = EDGE_LOOP('',(#413,#421,#427,#428));
#413 = ORIENTED_EDGE('',*,*,#414,.T.);
#414 = EDGE_CURVE('',#130,#415,#417,.T.);
#415 = VERTEX_POINT('',#416);
#416 = CARTESIAN_POINT('',(1.623826654872,0.664237478357,1.1));
#417 = LINE('',#418,#419);
#418 = CARTESIAN_POINT('',(1.623826654872,0.664237478357,0.9));
#419 = VECTOR('',#420,1.);
#420 = DIRECTION('',(0.,0.,1.));
#421 = ORIENTED_EDGE('',*,*,#422,.T.);
#422 = EDGE_CURVE('',#415,#391,#423,.T.);
#423 = LINE('',#424,#425);
#424 = CARTESIAN_POINT('',(1.623826654872,0.664237478357,1.1));
#425 = VECTOR('',#426,1.);
#426 = DIRECTION('',(-0.707106781187,0.707106781186,0.));
#427 = ORIENTED_EDGE('',*,*,#390,.F.);
#428 = ORIENTED_EDGE('',*,*,#137,.F.);
#429 = PLANE('',#430);
#430 = AXIS2_PLACEMENT_3D('',#431,#432,#433);
#431 = CARTESIAN_POINT('',(1.623826654872,0.664237478357,0.9));
#432 = DIRECTION('',(-0.707106781186,-0.707106781187,0.));
#433 = DIRECTION('',(-0.707106781187,0.707106781186,0.));
#434 = ADVANCED_FACE('',(#435),#453,.T.);
#435 = FACE_BOUND('',#436,.T.);
#436 = EDGE_LOOP('',(#437,#445,#451,#452));
#437 = ORIENTED_EDGE('',*,*,#438,.T.);
#438 = EDGE_CURVE('',#122,#439,#441,.T.);
#439 = VERTEX_POINT('',#440);
#440 = CARTESIAN_POINT('',(3.547698388413,0.664237478357,1.1));
#441 = LINE('',#442,#443);
#442 = CARTESIAN_POINT('',(3.547698388413,0.664237478357,0.9));
#443 = VECTOR('',#444,1.);
#444 = DIRECTION('',(0.,0.,1.));
#445 = ORIENTED_EDGE('',*,*,#446,.T.);
#446 = EDGE_CURVE('',#439,#415,#447,.T.);
#447 = LINE('',#448,#449);
#448 = CARTESIAN_POINT('',(3.547698388413,0.664237478357,1.1));
#449 = VECTOR('',#450,1.);
#450 = DIRECTION('',(-1.,0.,0.));
#451 = ORIENTED_EDGE('',*,*,#414,.F.);
#452 = ORIENTED_EDGE('',*,*,#129,.F.);
#453 = PLANE('',#454);
#454 = AXIS2_PLACEMENT_3D('',#455,#456,#457);
#455 = CARTESIAN_POINT('',(3.547698388413,0.664237478357,0.9));
#456 = DIRECTION('',(0.,-1.,0.));
#457 = DIRECTION('',(-1.,0.,0.));
#458 = ADVANCED_FACE('',(#459),#477,.T.);
#459 = FACE_BOUND('',#460,.T.);
#460 = EDGE_LOOP('',(#461,#469,#475,#476));
#461 = ORIENTED_EDGE('',*,*,#462,.T.);
#462 = EDGE_CURVE('',#114,#463,#465,.T.);
#463 = VERTEX_POINT('',#464);
#464 = CARTESIAN_POINT('',(4.435762521642,1.552301611587,1.1));
#465 = LINE('',#466,#467);
#466 = CARTESIAN_POINT('',(4.435762521642,1.552301611587,0.9));
#467 = VECTOR('',#468,1.);
#468 = DIRECTION('',(0.,0.,1.));
#469 = ORIENTED_EDGE('',*,*,#470,.T.);
#470 = EDGE_CURVE('',#463,#439,#471,.T.);
#471 = LINE('',#472,#473);
#472 = CARTESIAN_POINT('',(4.435762521642,1.552301611587,1.1));
#473 = VECTOR('',#474,1.);
#474 = DIRECTION('',(-0.707106781186,-0.707106781187,0.));
#475 = ORIENTED_EDGE('',*,*,#438,.F.);
#476 = ORIENTED_EDGE('',*,*,#121,.F.);
#477 = PLANE('',#478);
#478 = AXIS2_PLACEMENT_3D('',#479,#480,#481);
#479 = CARTESIAN_POINT('',(4.435762521642,1.552301611587,0.9));
#480 = DIRECTION('',(0.707106781187,-0.707106781186,0.));
#481 = DIRECTION('',(-0.707106781186,-0.707106781187,0.));
#482 = ADVANCED_FACE('',(#483),#501,.T.);
#483 = FACE_BOUND('',#484,.T.);
#484 = EDGE_LOOP('',(#485,#493,#499,#500));
#485 = ORIENTED_EDGE('',*,*,#486,.T.);
#486 = EDGE_CURVE('',#106,#487,#489,.T.);
#487 = VERTEX_POINT('',#488);
#488 = CARTESIAN_POINT('',(4.435762521642,3.476173345129,1.1));
#489 = LINE('',#490,#491);
#490 = CARTESIAN_POINT('',(4.435762521642,3.476173345129,0.9));
#491 = VECTOR('',#492,1.);
#492 = DIRECTION('',(0.,0.,1.));
#493 = ORIENTED_EDGE('',*,*,#494,.T.);
#494 = EDGE_CURVE('',#487,#463,#495,.T.);
#495 = LINE('',#496,#497);
#496 = CARTESIAN_POINT('',(4.435762521642,3.476173345129,1.1));
#497 = VECTOR('',#498,1.);
#498 = DIRECTION('',(0.,-1.,0.));
#499 = ORIENTED_EDGE('',*,*,#462,.F.);
#500 = ORIENTED_EDGE('',*,*,#113,.F.);
#501 = PLANE('',#502);
#502 = AXIS2_PLACEMENT_3D('',#503,#504,#505);
#503 = CARTESIAN_POINT('',(4.435762521642,3.476173345129,0.9));
#504 = DIRECTION('',(1.,0.,0.));
#505 = DIRECTION('',(0.,-1.,0.));
#506 = ADVANCED_FACE('',(#507),#525,.T.);
#507 = FACE_BOUND('',#508,.T.);
#508 = EDGE_LOOP('',(#509,#517,#523,#524));
#509 = ORIENTED_EDGE('',*,*,#510,.T.);
#510 = EDGE_CURVE('',#98,#511,#513,.T.);
#511 = VERTEX_POINT('',#512);
#512 = CARTESIAN_POINT('',(3.547698388412,4.364237478357,1.1));
#513 = LINE('',#514,#515);
#514 = CARTESIAN_POINT('',(3.547698388412,4.364237478357,0.9));
#515 = VECTOR('',#516,1.);
#516 = DIRECTION('',(0.,0.,1.));
#517 = ORIENTED_EDGE('',*,*,#518,.T.);
#518 = EDGE_CURVE('',#511,#487,#519,.T.);
#519 = LINE('',#520,#521);
#520 = CARTESIAN_POINT('',(3.547698388412,4.364237478357,1.1));
#521 = VECTOR('',#522,1.);
#522 = DIRECTION('',(0.707106781187,-0.707106781186,0.));
#523 = ORIENTED_EDGE('',*,*,#486,.F.);
#524 = ORIENTED_EDGE('',*,*,#105,.F.);
#525 = PLANE('',#526);
#526 = AXIS2_PLACEMENT_3D('',#527,#528,#529);
#527 = CARTESIAN_POINT('',(3.547698388412,4.364237478357,0.9));
#528 = DIRECTION('',(0.707106781186,0.707106781187,0.));
#529 = DIRECTION('',(0.707106781187,-0.707106781186,0.));
#530 = ADVANCED_FACE('',(#531),#542,.T.);
#531 = FACE_BOUND('',#532,.T.);
#532 = EDGE_LOOP('',(#533,#534,#540,#541));
#533 = ORIENTED_EDGE('',*,*,#375,.T.);
#534 = ORIENTED_EDGE('',*,*,#535,.T.);
#535 = EDGE_CURVE('',#368,#511,#536,.T.);
#536 = LINE('',#537,#538);
#537 = CARTESIAN_POINT('',(1.62382665487,4.364237478357,1.1));
#538 = VECTOR('',#539,1.);
#539 = DIRECTION('',(1.,0.,0.));
#540 = ORIENTED_EDGE('',*,*,#510,.F.);
#541 = ORIENTED_EDGE('',*,*,#97,.F.);
#542 = PLANE('',#543);
#543 = AXIS2_PLACEMENT_3D('',#544,#545,#546);
#544 = CARTESIAN_POINT('',(1.62382665487,4.364237478357,0.9));
#545 = DIRECTION('',(0.,1.,0.));
#546 = DIRECTION('',(1.,0.,0.));
#547 = ADVANCED_FACE('',(#548),#573,.F.);
#548 = FACE_BOUND('',#549,.F.);
#549 = EDGE_LOOP('',(#550,#558,#559,#567));
#550 = ORIENTED_EDGE('',*,*,#551,.T.);
#551 = EDGE_CURVE('',#552,#160,#554,.T.);
#552 = VERTEX_POINT('',#553);
#553 = CARTESIAN_POINT('',(1.250000000001,0.,0.));
#554 = LINE('',#555,#556);
#555 = CARTESIAN_POINT('',(1.250000000001,0.,0.));
#556 = VECTOR('',#557,1.);
#557 = DIRECTION('',(0.,0.,1.));
#558 = ORIENTED_EDGE('',*,*,#168,.T.);
#559 = ORIENTED_EDGE('',*,*,#560,.F.);
#560 = EDGE_CURVE('',#561,#169,#563,.T.);
#561 = VERTEX_POINT('',#562);
#562 = CARTESIAN_POINT('',(3.849999999995,0.,0.));
#563 = LINE('',#564,#565);
#564 = CARTESIAN_POINT('',(3.849999999995,0.,0.));
#565 = VECTOR('',#566,1.);
#566 = DIRECTION('',(0.,0.,1.));
#567 = ORIENTED_EDGE('',*,*,#568,.F.);
#568 = EDGE_CURVE('',#552,#561,#569,.T.);
#569 = LINE('',#570,#571);
#570 = CARTESIAN_POINT('',(1.250000000001,0.,0.));
#571 = VECTOR('',#572,1.);
#572 = DIRECTION('',(1.,0.,0.));
#573 = PLANE('',#574);
#574 = AXIS2_PLACEMENT_3D('',#575,#576,#577);
#575 = CARTESIAN_POINT('',(1.250000000001,0.,0.));
#576 = DIRECTION('',(0.,1.,0.));
#577 = DIRECTION('',(1.,0.,0.));
#578 = ADVANCED_FACE('',(#579,#597),#631,.T.);
#579 = FACE_BOUND('',#580,.T.);
#580 = EDGE_LOOP('',(#581,#582,#583,#591));
#581 = ORIENTED_EDGE('',*,*,#551,.T.);
#582 = ORIENTED_EDGE('',*,*,#193,.T.);
#583 = ORIENTED_EDGE('',*,*,#584,.F.);
#584 = EDGE_CURVE('',#585,#194,#587,.T.);
#585 = VERTEX_POINT('',#586);
#586 = CARTESIAN_POINT('',(0.,1.250000000003,0.));
#587 = LINE('',#588,#589);
#588 = CARTESIAN_POINT('',(0.,1.250000000003,0.));
#589 = VECTOR('',#590,1.);
#590 = DIRECTION('',(0.,0.,1.));
#591 = ORIENTED_EDGE('',*,*,#592,.F.);
#592 = EDGE_CURVE('',#552,#585,#593,.T.);
#593 = LINE('',#594,#595);
#594 = CARTESIAN_POINT('',(1.250000000001,0.,0.));
#595 = VECTOR('',#596,1.);
#596 = DIRECTION('',(-0.707106781186,0.707106781187,0.));
#597 = FACE_BOUND('',#598,.T.);
#598 = EDGE_LOOP('',(#599,#609,#617,#625));
#599 = ORIENTED_EDGE('',*,*,#600,.F.);
#600 = EDGE_CURVE('',#601,#603,#605,.T.);
#601 = VERTEX_POINT('',#602);
#602 = CARTESIAN_POINT('',(0.300000000002,0.95,0.299999999999));
#603 = VERTEX_POINT('',#604);
#604 = CARTESIAN_POINT('',(0.300000000002,0.95,0.15));
#605 = LINE('',#606,#607);
#606 = CARTESIAN_POINT('',(0.300000000002,0.95,9.046542285819E-02));
#607 = VECTOR('',#608,1.);
#608 = DIRECTION('',(4.726012253772E-16,-4.726012253778E-16,-1.));
#609 = ORIENTED_EDGE('',*,*,#610,.T.);
#610 = EDGE_CURVE('',#601,#611,#613,.T.);
#611 = VERTEX_POINT('',#612);
#612 = CARTESIAN_POINT('',(0.800000000002,0.45,0.299999999999));
#613 = LINE('',#614,#615);
#614 = CARTESIAN_POINT('',(1.025000000001,0.225000000001,0.299999999999)
  );
#615 = VECTOR('',#616,1.);
#616 = DIRECTION('',(0.707106781186,-0.707106781187,1.570092458685E-16)
  );
#617 = ORIENTED_EDGE('',*,*,#618,.T.);
#618 = EDGE_CURVE('',#611,#619,#621,.T.);
#619 = VERTEX_POINT('',#620);
#620 = CARTESIAN_POINT('',(0.800000000002,0.45,0.15));
#621 = LINE('',#622,#623);
#622 = CARTESIAN_POINT('',(0.800000000002,0.45,9.046542285819E-02));
#623 = VECTOR('',#624,1.);
#624 = DIRECTION('',(4.726012253772E-16,-4.726012253778E-16,-1.));
#625 = ORIENTED_EDGE('',*,*,#626,.T.);
#626 = EDGE_CURVE('',#619,#603,#627,.T.);
#627 = LINE('',#628,#629);
#628 = CARTESIAN_POINT('',(0.70807189139,0.541928108612,0.15));
#629 = VECTOR('',#630,1.);
#630 = DIRECTION('',(-0.707106781186,0.707106781187,-1.570092458685E-16)
  );
#631 = PLANE('',#632);
#632 = AXIS2_PLACEMENT_3D('',#633,#634,#635);
#633 = CARTESIAN_POINT('',(1.250000000001,0.,0.));
#634 = DIRECTION('',(-0.707106781187,-0.707106781186,0.));
#635 = DIRECTION('',(-0.707106781186,0.707106781187,0.));
#636 = ADVANCED_FACE('',(#637,#655),#689,.F.);
#637 = FACE_BOUND('',#638,.F.);
#638 = EDGE_LOOP('',(#639,#640,#641,#649));
#639 = ORIENTED_EDGE('',*,*,#560,.T.);
#640 = ORIENTED_EDGE('',*,*,#218,.T.);
#641 = ORIENTED_EDGE('',*,*,#642,.F.);
#642 = EDGE_CURVE('',#643,#219,#645,.T.);
#643 = VERTEX_POINT('',#644);
#644 = CARTESIAN_POINT('',(5.1,1.25,0.));
#645 = LINE('',#646,#647);
#646 = CARTESIAN_POINT('',(5.1,1.25,0.));
#647 = VECTOR('',#648,1.);
#648 = DIRECTION('',(0.,0.,1.));
#649 = ORIENTED_EDGE('',*,*,#650,.F.);
#650 = EDGE_CURVE('',#561,#643,#651,.T.);
#651 = LINE('',#652,#653);
#652 = CARTESIAN_POINT('',(3.849999999995,0.,0.));
#653 = VECTOR('',#654,1.);
#654 = DIRECTION('',(0.707106781188,0.707106781185,0.));
#655 = FACE_BOUND('',#656,.F.);
#656 = EDGE_LOOP('',(#657,#667,#675,#683));
#657 = ORIENTED_EDGE('',*,*,#658,.F.);
#658 = EDGE_CURVE('',#659,#661,#663,.T.);
#659 = VERTEX_POINT('',#660);
#660 = CARTESIAN_POINT('',(4.299999999996,0.449999999999,0.299999999999)
  );
#661 = VERTEX_POINT('',#662);
#662 = CARTESIAN_POINT('',(4.799999999998,0.949999999999,0.299999999999)
  );
#663 = LINE('',#664,#665);
#664 = CARTESIAN_POINT('',(4.074999999995,0.224999999999,0.299999999999)
  );
#665 = VECTOR('',#666,1.);
#666 = DIRECTION('',(0.707106781188,0.707106781185,-1.570092458681E-16)
  );
#667 = ORIENTED_EDGE('',*,*,#668,.F.);
#668 = EDGE_CURVE('',#669,#659,#671,.T.);
#669 = VERTEX_POINT('',#670);
#670 = CARTESIAN_POINT('',(4.299999999996,0.449999999999,0.15));
#671 = LINE('',#672,#673);
#672 = CARTESIAN_POINT('',(4.299999999996,0.449999999999,
    9.046542285819E-02));
#673 = VECTOR('',#674,1.);
#674 = DIRECTION('',(4.726012253795E-16,4.726012253775E-16,1.));
#675 = ORIENTED_EDGE('',*,*,#676,.F.);
#676 = EDGE_CURVE('',#677,#669,#679,.T.);
#677 = VERTEX_POINT('',#678);
#678 = CARTESIAN_POINT('',(4.799999999998,0.949999999999,0.15));
#679 = LINE('',#680,#681);
#680 = CARTESIAN_POINT('',(4.391928108607,0.54192810861,0.15));
#681 = VECTOR('',#682,1.);
#682 = DIRECTION('',(-0.707106781188,-0.707106781185,1.570092458681E-16)
  );
#683 = ORIENTED_EDGE('',*,*,#684,.T.);
#684 = EDGE_CURVE('',#677,#661,#685,.T.);
#685 = LINE('',#686,#687);
#686 = CARTESIAN_POINT('',(4.799999999998,0.949999999999,
    9.046542285819E-02));
#687 = VECTOR('',#688,1.);
#688 = DIRECTION('',(4.726012253795E-16,4.726012253775E-16,1.));
#689 = PLANE('',#690);
#690 = AXIS2_PLACEMENT_3D('',#691,#692,#693);
#691 = CARTESIAN_POINT('',(3.849999999995,0.,0.));
#692 = DIRECTION('',(-0.707106781185,0.707106781188,0.));
#693 = DIRECTION('',(0.707106781188,0.707106781185,0.));
#694 = ADVANCED_FACE('',(#695),#713,.F.);
#695 = FACE_BOUND('',#696,.F.);
#696 = EDGE_LOOP('',(#697,#705,#706,#707));
#697 = ORIENTED_EDGE('',*,*,#698,.T.);
#698 = EDGE_CURVE('',#699,#243,#701,.T.);
#699 = VERTEX_POINT('',#700);
#700 = CARTESIAN_POINT('',(0.,3.849999999999,0.));
#701 = LINE('',#702,#703);
#702 = CARTESIAN_POINT('',(0.,3.849999999999,0.));
#703 = VECTOR('',#704,1.);
#704 = DIRECTION('',(0.,0.,1.));
#705 = ORIENTED_EDGE('',*,*,#251,.T.);
#706 = ORIENTED_EDGE('',*,*,#584,.F.);
#707 = ORIENTED_EDGE('',*,*,#708,.F.);
#708 = EDGE_CURVE('',#699,#585,#709,.T.);
#709 = LINE('',#710,#711);
#710 = CARTESIAN_POINT('',(0.,3.849999999999,0.));
#711 = VECTOR('',#712,1.);
#712 = DIRECTION('',(0.,-1.,0.));
#713 = PLANE('',#714);
#714 = AXIS2_PLACEMENT_3D('',#715,#716,#717);
#715 = CARTESIAN_POINT('',(0.,3.849999999999,0.));
#716 = DIRECTION('',(1.,0.,0.));
#717 = DIRECTION('',(0.,-1.,0.));
#718 = ADVANCED_FACE('',(#719),#737,.F.);
#719 = FACE_BOUND('',#720,.F.);
#720 = EDGE_LOOP('',(#721,#722,#723,#731));
#721 = ORIENTED_EDGE('',*,*,#642,.T.);
#722 = ORIENTED_EDGE('',*,*,#268,.T.);
#723 = ORIENTED_EDGE('',*,*,#724,.F.);
#724 = EDGE_CURVE('',#725,#269,#727,.T.);
#725 = VERTEX_POINT('',#726);
#726 = CARTESIAN_POINT('',(5.1,3.85,0.));
#727 = LINE('',#728,#729);
#728 = CARTESIAN_POINT('',(5.1,3.85,0.));
#729 = VECTOR('',#730,1.);
#730 = DIRECTION('',(0.,0.,1.));
#731 = ORIENTED_EDGE('',*,*,#732,.F.);
#732 = EDGE_CURVE('',#643,#725,#733,.T.);
#733 = LINE('',#734,#735);
#734 = CARTESIAN_POINT('',(5.1,1.25,0.));
#735 = VECTOR('',#736,1.);
#736 = DIRECTION('',(0.,1.,0.));
#737 = PLANE('',#738);
#738 = AXIS2_PLACEMENT_3D('',#739,#740,#741);
#739 = CARTESIAN_POINT('',(5.1,1.25,0.));
#740 = DIRECTION('',(-1.,0.,0.));
#741 = DIRECTION('',(0.,1.,0.));
#742 = ADVANCED_FACE('',(#743,#761),#795,.T.);
#743 = FACE_BOUND('',#744,.T.);
#744 = EDGE_LOOP('',(#745,#746,#747,#755));
#745 = ORIENTED_EDGE('',*,*,#698,.T.);
#746 = ORIENTED_EDGE('',*,*,#293,.T.);
#747 = ORIENTED_EDGE('',*,*,#748,.F.);
#748 = EDGE_CURVE('',#749,#294,#751,.T.);
#749 = VERTEX_POINT('',#750);
#750 = CARTESIAN_POINT('',(1.250000000003,5.1,0.));
#751 = LINE('',#752,#753);
#752 = CARTESIAN_POINT('',(1.250000000003,5.1,0.));
#753 = VECTOR('',#754,1.);
#754 = DIRECTION('',(0.,0.,1.));
#755 = ORIENTED_EDGE('',*,*,#756,.F.);
#756 = EDGE_CURVE('',#699,#749,#757,.T.);
#757 = LINE('',#758,#759);
#758 = CARTESIAN_POINT('',(0.,3.849999999999,0.));
#759 = VECTOR('',#760,1.);
#760 = DIRECTION('',(0.707106781187,0.707106781186,0.));
#761 = FACE_BOUND('',#762,.T.);
#762 = EDGE_LOOP('',(#763,#773,#781,#789));
#763 = ORIENTED_EDGE('',*,*,#764,.F.);
#764 = EDGE_CURVE('',#765,#767,#769,.T.);
#765 = VERTEX_POINT('',#766);
#766 = CARTESIAN_POINT('',(0.300000000002,4.150000000001,0.299999999999)
  );
#767 = VERTEX_POINT('',#768);
#768 = CARTESIAN_POINT('',(0.800000000003,4.65,0.299999999999));
#769 = LINE('',#770,#771);
#770 = CARTESIAN_POINT('',(0.400000000001,4.249999999999,0.299999999999)
  );
#771 = VECTOR('',#772,1.);
#772 = DIRECTION('',(0.707106781187,0.707106781186,-1.570092458683E-16)
  );
#773 = ORIENTED_EDGE('',*,*,#774,.T.);
#774 = EDGE_CURVE('',#765,#775,#777,.T.);
#775 = VERTEX_POINT('',#776);
#776 = CARTESIAN_POINT('',(0.300000000002,4.150000000001,0.15));
#777 = LINE('',#778,#779);
#778 = CARTESIAN_POINT('',(0.300000000002,4.150000000001,
    9.046542285819E-02));
#779 = VECTOR('',#780,1.);
#780 = DIRECTION('',(2.851201552776E-17,2.851201552772E-17,-1.));
#781 = ORIENTED_EDGE('',*,*,#782,.F.);
#782 = EDGE_CURVE('',#783,#775,#785,.T.);
#783 = VERTEX_POINT('',#784);
#784 = CARTESIAN_POINT('',(0.800000000003,4.65,0.15));
#785 = LINE('',#786,#787);
#786 = CARTESIAN_POINT('',(8.307189138967E-02,3.933071891388,0.15));
#787 = VECTOR('',#788,1.);
#788 = DIRECTION('',(-0.707106781187,-0.707106781186,1.570092458683E-16)
  );
#789 = ORIENTED_EDGE('',*,*,#790,.F.);
#790 = EDGE_CURVE('',#767,#783,#791,.T.);
#791 = LINE('',#792,#793);
#792 = CARTESIAN_POINT('',(0.800000000003,4.65,9.046542285819E-02));
#793 = VECTOR('',#794,1.);
#794 = DIRECTION('',(2.851201552776E-17,2.851201552772E-17,-1.));
#795 = PLANE('',#796);
#796 = AXIS2_PLACEMENT_3D('',#797,#798,#799);
#797 = CARTESIAN_POINT('',(0.,3.849999999999,0.));
#798 = DIRECTION('',(-0.707106781186,0.707106781187,0.));
#799 = DIRECTION('',(0.707106781187,0.707106781186,0.));
#800 = ADVANCED_FACE('',(#801,#819),#853,.T.);
#801 = FACE_BOUND('',#802,.T.);
#802 = EDGE_LOOP('',(#803,#811,#812,#813));
#803 = ORIENTED_EDGE('',*,*,#804,.T.);
#804 = EDGE_CURVE('',#805,#318,#807,.T.);
#805 = VERTEX_POINT('',#806);
#806 = CARTESIAN_POINT('',(3.849999999996,5.1,0.));
#807 = LINE('',#808,#809);
#808 = CARTESIAN_POINT('',(3.849999999996,5.1,0.));
#809 = VECTOR('',#810,1.);
#810 = DIRECTION('',(0.,0.,1.));
#811 = ORIENTED_EDGE('',*,*,#326,.T.);
#812 = ORIENTED_EDGE('',*,*,#724,.F.);
#813 = ORIENTED_EDGE('',*,*,#814,.F.);
#814 = EDGE_CURVE('',#805,#725,#815,.T.);
#815 = LINE('',#816,#817);
#816 = CARTESIAN_POINT('',(3.849999999996,5.1,0.));
#817 = VECTOR('',#818,1.);
#818 = DIRECTION('',(0.707106781188,-0.707106781185,0.));
#819 = FACE_BOUND('',#820,.T.);
#820 = EDGE_LOOP('',(#821,#831,#839,#847));
#821 = ORIENTED_EDGE('',*,*,#822,.F.);
#822 = EDGE_CURVE('',#823,#825,#827,.T.);
#823 = VERTEX_POINT('',#824);
#824 = CARTESIAN_POINT('',(4.799999999999,4.149999999999,0.299999999999)
  );
#825 = VERTEX_POINT('',#826);
#826 = CARTESIAN_POINT('',(4.799999999999,4.149999999999,0.15));
#827 = LINE('',#828,#829);
#828 = CARTESIAN_POINT('',(4.799999999999,4.149999999999,
    9.046542285819E-02));
#829 = VECTOR('',#830,1.);
#830 = DIRECTION('',(-2.851201552783E-17,2.851201552774E-17,-1.));
#831 = ORIENTED_EDGE('',*,*,#832,.T.);
#832 = EDGE_CURVE('',#823,#833,#835,.T.);
#833 = VERTEX_POINT('',#834);
#834 = CARTESIAN_POINT('',(4.299999999998,4.649999999999,0.299999999999)
  );
#835 = LINE('',#836,#837);
#836 = CARTESIAN_POINT('',(4.074999999996,4.875,0.299999999999));
#837 = VECTOR('',#838,1.);
#838 = DIRECTION('',(-0.707106781188,0.707106781185,-1.570092458681E-16)
  );
#839 = ORIENTED_EDGE('',*,*,#840,.T.);
#840 = EDGE_CURVE('',#833,#841,#843,.T.);
#841 = VERTEX_POINT('',#842);
#842 = CARTESIAN_POINT('',(4.299999999998,4.649999999999,0.15));
#843 = LINE('',#844,#845);
#844 = CARTESIAN_POINT('',(4.299999999998,4.649999999999,
    9.046542285819E-02));
#845 = VECTOR('',#846,1.);
#846 = DIRECTION('',(-2.851201552783E-17,2.851201552774E-17,-1.));
#847 = ORIENTED_EDGE('',*,*,#848,.T.);
#848 = EDGE_CURVE('',#841,#825,#849,.T.);
#849 = LINE('',#850,#851);
#850 = CARTESIAN_POINT('',(4.391928108608,4.558071891389,0.15));
#851 = VECTOR('',#852,1.);
#852 = DIRECTION('',(0.707106781188,-0.707106781185,1.570092458681E-16)
  );
#853 = PLANE('',#854);
#854 = AXIS2_PLACEMENT_3D('',#855,#856,#857);
#855 = CARTESIAN_POINT('',(3.849999999996,5.1,0.));
#856 = DIRECTION('',(0.707106781185,0.707106781188,0.));
#857 = DIRECTION('',(0.707106781188,-0.707106781185,0.));
#858 = ADVANCED_FACE('',(#859),#870,.F.);
#859 = FACE_BOUND('',#860,.F.);
#860 = EDGE_LOOP('',(#861,#862,#863,#864));
#861 = ORIENTED_EDGE('',*,*,#804,.T.);
#862 = ORIENTED_EDGE('',*,*,#343,.T.);
#863 = ORIENTED_EDGE('',*,*,#748,.F.);
#864 = ORIENTED_EDGE('',*,*,#865,.F.);
#865 = EDGE_CURVE('',#805,#749,#866,.T.);
#866 = LINE('',#867,#868);
#867 = CARTESIAN_POINT('',(3.849999999996,5.1,0.));
#868 = VECTOR('',#869,1.);
#869 = DIRECTION('',(-1.,0.,0.));
#870 = PLANE('',#871);
#871 = AXIS2_PLACEMENT_3D('',#872,#873,#874);
#872 = CARTESIAN_POINT('',(3.849999999996,5.1,0.));
#873 = DIRECTION('',(0.,-1.,0.));
#874 = DIRECTION('',(-1.,0.,0.));
#875 = ADVANCED_FACE('',(#876,#886),#897,.T.);
#876 = FACE_BOUND('',#877,.T.);
#877 = EDGE_LOOP('',(#878,#879,#880,#881,#882,#883,#884,#885));
#878 = ORIENTED_EDGE('',*,*,#535,.F.);
#879 = ORIENTED_EDGE('',*,*,#367,.F.);
#880 = ORIENTED_EDGE('',*,*,#398,.F.);
#881 = ORIENTED_EDGE('',*,*,#422,.F.);
#882 = ORIENTED_EDGE('',*,*,#446,.F.);
#883 = ORIENTED_EDGE('',*,*,#470,.F.);
#884 = ORIENTED_EDGE('',*,*,#494,.F.);
#885 = ORIENTED_EDGE('',*,*,#518,.F.);
#886 = FACE_BOUND('',#887,.T.);
#887 = EDGE_LOOP('',(#888));
#888 = ORIENTED_EDGE('',*,*,#889,.F.);
#889 = EDGE_CURVE('',#890,#890,#892,.T.);
#890 = VERTEX_POINT('',#891);
#891 = CARTESIAN_POINT('',(3.585762521642,2.514237478357,1.1));
#892 = CIRCLE('',#893,1.);
#893 = AXIS2_PLACEMENT_3D('',#894,#895,#896);
#894 = CARTESIAN_POINT('',(2.585762521642,2.514237478357,1.1));
#895 = DIRECTION('',(0.,0.,1.));
#896 = DIRECTION('',(1.,0.,0.));
#897 = PLANE('',#898);
#898 = AXIS2_PLACEMENT_3D('',#899,#900,#901);
#899 = CARTESIAN_POINT('',(2.585762521642,2.514237478357,1.1));
#900 = DIRECTION('',(0.,0.,1.));
#901 = DIRECTION('',(1.,0.,0.));
#902 = ADVANCED_FACE('',(#903),#913,.F.);
#903 = FACE_BOUND('',#904,.F.);
#904 = EDGE_LOOP('',(#905,#906,#907,#908,#909,#910,#911,#912));
#905 = ORIENTED_EDGE('',*,*,#568,.T.);
#906 = ORIENTED_EDGE('',*,*,#650,.T.);
#907 = ORIENTED_EDGE('',*,*,#732,.T.);
#908 = ORIENTED_EDGE('',*,*,#814,.F.);
#909 = ORIENTED_EDGE('',*,*,#865,.T.);
#910 = ORIENTED_EDGE('',*,*,#756,.F.);
#911 = ORIENTED_EDGE('',*,*,#708,.T.);
#912 = ORIENTED_EDGE('',*,*,#592,.F.);
#913 = PLANE('',#914);
#914 = AXIS2_PLACEMENT_3D('',#915,#916,#917);
#915 = CARTESIAN_POINT('',(2.55,2.55,0.));
#916 = DIRECTION('',(0.,0.,1.));
#917 = DIRECTION('',(1.,0.,0.));
#918 = ADVANCED_FACE('',(#919),#976,.T.);
#919 = FACE_BOUND('',#920,.T.);
#920 = EDGE_LOOP('',(#921,#931,#939,#947,#955,#961,#962,#970));
#921 = ORIENTED_EDGE('',*,*,#922,.F.);
#922 = EDGE_CURVE('',#923,#925,#927,.T.);
#923 = VERTEX_POINT('',#924);
#924 = CARTESIAN_POINT('',(-0.7,0.95,-2.10942374679E-16));
#925 = VERTEX_POINT('',#926);
#926 = CARTESIAN_POINT('',(-0.3,0.95,-2.109423746788E-16));
#927 = LINE('',#928,#929);
#928 = CARTESIAN_POINT('',(-0.7,0.95,-2.10942374679E-16));
#929 = VECTOR('',#930,1.);
#930 = DIRECTION('',(1.,1.05635494125E-43,4.757399719786E-28));
#931 = ORIENTED_EDGE('',*,*,#932,.T.);
#932 = EDGE_CURVE('',#923,#933,#935,.T.);
#933 = VERTEX_POINT('',#934);
#934 = CARTESIAN_POINT('',(-0.7,0.95,0.15));
#935 = LINE('',#936,#937);
#936 = CARTESIAN_POINT('',(-0.7,0.95,-2.10942374679E-16));
#937 = VECTOR('',#938,1.);
#938 = DIRECTION('',(0.,2.22044604925E-16,1.));
#939 = ORIENTED_EDGE('',*,*,#940,.T.);
#940 = EDGE_CURVE('',#933,#941,#943,.T.);
#941 = VERTEX_POINT('',#942);
#942 = CARTESIAN_POINT('',(-0.332287565553,0.95,0.15));
#943 = LINE('',#944,#945);
#944 = CARTESIAN_POINT('',(-0.7,0.95,0.15));
#945 = VECTOR('',#946,1.);
#946 = DIRECTION('',(1.,0.,0.));
#947 = ORIENTED_EDGE('',*,*,#948,.T.);
#948 = EDGE_CURVE('',#941,#949,#951,.T.);
#949 = VERTEX_POINT('',#950);
#950 = CARTESIAN_POINT('',(0.,0.95,0.299999999999));
#951 = LINE('',#952,#953);
#952 = CARTESIAN_POINT('',(-0.332287565553,0.95,0.15));
#953 = VECTOR('',#954,1.);
#954 = DIRECTION('',(0.911437827767,9.135754991696E-17,0.411437827764));
#955 = ORIENTED_EDGE('',*,*,#956,.F.);
#956 = EDGE_CURVE('',#601,#949,#957,.T.);
#957 = LINE('',#958,#959);
#958 = CARTESIAN_POINT('',(1.3,0.95,0.299999999999));
#959 = VECTOR('',#960,1.);
#960 = DIRECTION('',(-1.,0.,0.));
#961 = ORIENTED_EDGE('',*,*,#600,.T.);
#962 = ORIENTED_EDGE('',*,*,#963,.F.);
#963 = EDGE_CURVE('',#964,#603,#966,.T.);
#964 = VERTEX_POINT('',#965);
#965 = CARTESIAN_POINT('',(3.22875655558E-02,0.95,0.15));
#966 = LINE('',#967,#968);
#967 = CARTESIAN_POINT('',(3.22875655558E-02,0.95,0.15));
#968 = VECTOR('',#969,1.);
#969 = DIRECTION('',(1.,0.,0.));
#970 = ORIENTED_EDGE('',*,*,#971,.F.);
#971 = EDGE_CURVE('',#925,#964,#972,.T.);
#972 = LINE('',#973,#974);
#973 = CARTESIAN_POINT('',(-0.3,0.95,-2.109423746788E-16));
#974 = VECTOR('',#975,1.);
#975 = DIRECTION('',(0.911437827767,9.135754991696E-17,0.411437827764));
#976 = PLANE('',#977);
#977 = AXIS2_PLACEMENT_3D('',#978,#979,#980);
#978 = CARTESIAN_POINT('',(0.293342121942,0.95,0.180930845716));
#979 = DIRECTION('',(0.,1.,-4.726012253778E-16));
#980 = DIRECTION('',(0.,4.726012253778E-16,1.));
#981 = ADVANCED_FACE('',(#982),#1000,.F.);
#982 = FACE_BOUND('',#983,.F.);
#983 = EDGE_LOOP('',(#984,#985,#993,#999));
#984 = ORIENTED_EDGE('',*,*,#963,.F.);
#985 = ORIENTED_EDGE('',*,*,#986,.T.);
#986 = EDGE_CURVE('',#964,#987,#989,.T.);
#987 = VERTEX_POINT('',#988);
#988 = CARTESIAN_POINT('',(3.22875655558E-02,0.45,0.15));
#989 = LINE('',#990,#991);
#990 = CARTESIAN_POINT('',(3.22875655558E-02,0.95,0.15));
#991 = VECTOR('',#992,1.);
#992 = DIRECTION('',(0.,-1.,2.22044604925E-16));
#993 = ORIENTED_EDGE('',*,*,#994,.T.);
#994 = EDGE_CURVE('',#987,#619,#995,.T.);
#995 = LINE('',#996,#997);
#996 = CARTESIAN_POINT('',(3.22875655558E-02,0.45,0.15));
#997 = VECTOR('',#998,1.);
#998 = DIRECTION('',(1.,0.,0.));
#999 = ORIENTED_EDGE('',*,*,#626,.T.);
#1000 = PLANE('',#1001);
#1001 = AXIS2_PLACEMENT_3D('',#1002,#1003,#1004);
#1002 = CARTESIAN_POINT('',(3.22875655558E-02,0.95,0.15));
#1003 = DIRECTION('',(0.,2.22044604925E-16,1.));
#1004 = DIRECTION('',(1.,0.,0.));
#1005 = ADVANCED_FACE('',(#1006),#1056,.F.);
#1006 = FACE_BOUND('',#1007,.F.);
#1007 = EDGE_LOOP('',(#1008,#1018,#1026,#1034,#1042,#1048,#1049,#1050));
#1008 = ORIENTED_EDGE('',*,*,#1009,.F.);
#1009 = EDGE_CURVE('',#1010,#1012,#1014,.T.);
#1010 = VERTEX_POINT('',#1011);
#1011 = CARTESIAN_POINT('',(-0.7,0.45,-9.992007221645E-17));
#1012 = VERTEX_POINT('',#1013);
#1013 = CARTESIAN_POINT('',(-0.3,0.45,-9.992007221626E-17));
#1014 = LINE('',#1015,#1016);
#1015 = CARTESIAN_POINT('',(-0.7,0.45,-9.992007221645E-17));
#1016 = VECTOR('',#1017,1.);
#1017 = DIRECTION('',(1.,1.05635494125E-43,4.757399719786E-28));
#1018 = ORIENTED_EDGE('',*,*,#1019,.T.);
#1019 = EDGE_CURVE('',#1010,#1020,#1022,.T.);
#1020 = VERTEX_POINT('',#1021);
#1021 = CARTESIAN_POINT('',(-0.7,0.45,0.15));
#1022 = LINE('',#1023,#1024);
#1023 = CARTESIAN_POINT('',(-0.7,0.45,-9.992007221645E-17));
#1024 = VECTOR('',#1025,1.);
#1025 = DIRECTION('',(0.,2.22044604925E-16,1.));
#1026 = ORIENTED_EDGE('',*,*,#1027,.T.);
#1027 = EDGE_CURVE('',#1020,#1028,#1030,.T.);
#1028 = VERTEX_POINT('',#1029);
#1029 = CARTESIAN_POINT('',(-0.332287565553,0.45,0.15));
#1030 = LINE('',#1031,#1032);
#1031 = CARTESIAN_POINT('',(-0.7,0.45,0.15));
#1032 = VECTOR('',#1033,1.);
#1033 = DIRECTION('',(1.,0.,0.));
#1034 = ORIENTED_EDGE('',*,*,#1035,.T.);
#1035 = EDGE_CURVE('',#1028,#1036,#1038,.T.);
#1036 = VERTEX_POINT('',#1037);
#1037 = CARTESIAN_POINT('',(0.,0.45,0.299999999999));
#1038 = LINE('',#1039,#1040);
#1039 = CARTESIAN_POINT('',(-0.332287565553,0.45,0.15));
#1040 = VECTOR('',#1041,1.);
#1041 = DIRECTION('',(0.911437827767,9.135754991696E-17,0.411437827764)
  );
#1042 = ORIENTED_EDGE('',*,*,#1043,.F.);
#1043 = EDGE_CURVE('',#611,#1036,#1044,.T.);
#1044 = LINE('',#1045,#1046);
#1045 = CARTESIAN_POINT('',(1.3,0.45,0.299999999999));
#1046 = VECTOR('',#1047,1.);
#1047 = DIRECTION('',(-1.,0.,0.));
#1048 = ORIENTED_EDGE('',*,*,#618,.T.);
#1049 = ORIENTED_EDGE('',*,*,#994,.F.);
#1050 = ORIENTED_EDGE('',*,*,#1051,.F.);
#1051 = EDGE_CURVE('',#1012,#987,#1052,.T.);
#1052 = LINE('',#1053,#1054);
#1053 = CARTESIAN_POINT('',(-0.3,0.45,-9.992007221626E-17));
#1054 = VECTOR('',#1055,1.);
#1055 = DIRECTION('',(0.911437827767,9.135754991696E-17,0.411437827764)
  );
#1056 = PLANE('',#1057);
#1057 = AXIS2_PLACEMENT_3D('',#1058,#1059,#1060);
#1058 = CARTESIAN_POINT('',(0.293342121942,0.45,0.180930845716));
#1059 = DIRECTION('',(0.,1.,-4.726012253778E-16));
#1060 = DIRECTION('',(0.,4.726012253778E-16,1.));
#1061 = ADVANCED_FACE('',(#1062),#1073,.F.);
#1062 = FACE_BOUND('',#1063,.F.);
#1063 = EDGE_LOOP('',(#1064,#1065,#1066,#1067));
#1064 = ORIENTED_EDGE('',*,*,#956,.F.);
#1065 = ORIENTED_EDGE('',*,*,#610,.T.);
#1066 = ORIENTED_EDGE('',*,*,#1043,.T.);
#1067 = ORIENTED_EDGE('',*,*,#1068,.F.);
#1068 = EDGE_CURVE('',#949,#1036,#1069,.T.);
#1069 = LINE('',#1070,#1071);
#1070 = CARTESIAN_POINT('',(0.,0.95,0.299999999999));
#1071 = VECTOR('',#1072,1.);
#1072 = DIRECTION('',(0.,-1.,2.22044604925E-16));
#1073 = PLANE('',#1074);
#1074 = AXIS2_PLACEMENT_3D('',#1075,#1076,#1077);
#1075 = CARTESIAN_POINT('',(1.3,0.95,0.299999999999));
#1076 = DIRECTION('',(-0.,-2.22044604925E-16,-1.));
#1077 = DIRECTION('',(-1.,0.,0.));
#1078 = ADVANCED_FACE('',(#1079),#1104,.F.);
#1079 = FACE_BOUND('',#1080,.T.);
#1080 = EDGE_LOOP('',(#1081,#1089,#1090,#1098));
#1081 = ORIENTED_EDGE('',*,*,#1082,.F.);
#1082 = EDGE_CURVE('',#661,#1083,#1085,.T.);
#1083 = VERTEX_POINT('',#1084);
#1084 = CARTESIAN_POINT('',(5.099999999997,0.949999999999,0.299999999999
    ));
#1085 = LINE('',#1086,#1087);
#1086 = CARTESIAN_POINT('',(3.799999999997,0.949999999999,0.299999999999
    ));
#1087 = VECTOR('',#1088,1.);
#1088 = DIRECTION('',(1.,-5.475619957451E-13,0.));
#1089 = ORIENTED_EDGE('',*,*,#658,.F.);
#1090 = ORIENTED_EDGE('',*,*,#1091,.T.);
#1091 = EDGE_CURVE('',#659,#1092,#1094,.T.);
#1092 = VERTEX_POINT('',#1093);
#1093 = CARTESIAN_POINT('',(5.099999999996,0.449999999999,0.299999999999
    ));
#1094 = LINE('',#1095,#1096);
#1095 = CARTESIAN_POINT('',(3.799999999996,0.449999999999,0.299999999999
    ));
#1096 = VECTOR('',#1097,1.);
#1097 = DIRECTION('',(1.,-5.475619957451E-13,0.));
#1098 = ORIENTED_EDGE('',*,*,#1099,.F.);
#1099 = EDGE_CURVE('',#1083,#1092,#1100,.T.);
#1100 = LINE('',#1101,#1102);
#1101 = CARTESIAN_POINT('',(5.099999999997,0.949999999999,0.299999999999
    ));
#1102 = VECTOR('',#1103,1.);
#1103 = DIRECTION('',(-5.475619957451E-13,-1.,2.22044604925E-16));
#1104 = PLANE('',#1105);
#1105 = AXIS2_PLACEMENT_3D('',#1106,#1107,#1108);
#1106 = CARTESIAN_POINT('',(3.799999999997,0.949999999999,0.299999999999
    ));
#1107 = DIRECTION('',(-1.215831870172E-28,-2.22044604925E-16,-1.));
#1108 = DIRECTION('',(-1.,5.475619957451E-13,0.));
#1109 = ADVANCED_FACE('',(#1110),#1160,.T.);
#1110 = FACE_BOUND('',#1111,.F.);
#1111 = EDGE_LOOP('',(#1112,#1122,#1130,#1138,#1144,#1145,#1146,#1154));
#1112 = ORIENTED_EDGE('',*,*,#1113,.F.);
#1113 = EDGE_CURVE('',#1114,#1116,#1118,.T.);
#1114 = VERTEX_POINT('',#1115);
#1115 = CARTESIAN_POINT('',(5.799999999997,0.949999999998,
    -2.10942374679E-16));
#1116 = VERTEX_POINT('',#1117);
#1117 = CARTESIAN_POINT('',(5.399999999997,0.949999999998,
    -2.109423746788E-16));
#1118 = LINE('',#1119,#1120);
#1119 = CARTESIAN_POINT('',(5.799999999997,0.949999999998,
    -2.10942374679E-16));
#1120 = VECTOR('',#1121,1.);
#1121 = DIRECTION('',(-1.,5.475619957451E-13,4.757399719786E-28));
#1122 = ORIENTED_EDGE('',*,*,#1123,.T.);
#1123 = EDGE_CURVE('',#1114,#1124,#1126,.T.);
#1124 = VERTEX_POINT('',#1125);
#1125 = CARTESIAN_POINT('',(5.799999999997,0.949999999998,0.15));
#1126 = LINE('',#1127,#1128);
#1127 = CARTESIAN_POINT('',(5.799999999997,0.949999999998,
    -2.10942374679E-16));
#1128 = VECTOR('',#1129,1.);
#1129 = DIRECTION('',(1.215831870172E-28,2.22044604925E-16,1.));
#1130 = ORIENTED_EDGE('',*,*,#1131,.T.);
#1131 = EDGE_CURVE('',#1124,#1132,#1134,.T.);
#1132 = VERTEX_POINT('',#1133);
#1133 = CARTESIAN_POINT('',(5.43228756555,0.949999999998,0.15));
#1134 = LINE('',#1135,#1136);
#1135 = CARTESIAN_POINT('',(5.799999999997,0.949999999998,0.15));
#1136 = VECTOR('',#1137,1.);
#1137 = DIRECTION('',(-1.,5.475619957451E-13,0.));
#1138 = ORIENTED_EDGE('',*,*,#1139,.T.);
#1139 = EDGE_CURVE('',#1132,#1083,#1140,.T.);
#1140 = LINE('',#1141,#1142);
#1141 = CARTESIAN_POINT('',(5.43228756555,0.949999999998,0.15));
#1142 = VECTOR('',#1143,1.);
#1143 = DIRECTION('',(-0.911437827767,4.991600735198E-13,0.411437827764)
  );
#1144 = ORIENTED_EDGE('',*,*,#1082,.F.);
#1145 = ORIENTED_EDGE('',*,*,#684,.F.);
#1146 = ORIENTED_EDGE('',*,*,#1147,.F.);
#1147 = EDGE_CURVE('',#1148,#677,#1150,.T.);
#1148 = VERTEX_POINT('',#1149);
#1149 = CARTESIAN_POINT('',(5.067712434441,0.949999999999,0.15));
#1150 = LINE('',#1151,#1152);
#1151 = CARTESIAN_POINT('',(5.067712434441,0.949999999999,0.15));
#1152 = VECTOR('',#1153,1.);
#1153 = DIRECTION('',(-1.,5.475619957451E-13,0.));
#1154 = ORIENTED_EDGE('',*,*,#1155,.F.);
#1155 = EDGE_CURVE('',#1116,#1148,#1156,.T.);
#1156 = LINE('',#1157,#1158);
#1157 = CARTESIAN_POINT('',(5.399999999997,0.949999999998,
    -2.109423746788E-16));
#1158 = VECTOR('',#1159,1.);
#1159 = DIRECTION('',(-0.911437827767,4.991600735198E-13,0.411437827764)
  );
#1160 = PLANE('',#1161);
#1161 = AXIS2_PLACEMENT_3D('',#1162,#1163,#1164);
#1162 = CARTESIAN_POINT('',(4.806657878055,0.949999999999,0.180930845716
    ));
#1163 = DIRECTION('',(5.475619957451E-13,1.,-4.726012253778E-16));
#1164 = DIRECTION('',(-2.587784701595E-28,-4.726012253778E-16,-1.));
#1165 = ADVANCED_FACE('',(#1166),#1184,.F.);
#1166 = FACE_BOUND('',#1167,.T.);
#1167 = EDGE_LOOP('',(#1168,#1169,#1177,#1183));
#1168 = ORIENTED_EDGE('',*,*,#1147,.F.);
#1169 = ORIENTED_EDGE('',*,*,#1170,.T.);
#1170 = EDGE_CURVE('',#1148,#1171,#1173,.T.);
#1171 = VERTEX_POINT('',#1172);
#1172 = CARTESIAN_POINT('',(5.067712434441,0.449999999999,0.15));
#1173 = LINE('',#1174,#1175);
#1174 = CARTESIAN_POINT('',(5.067712434441,0.949999999999,0.15));
#1175 = VECTOR('',#1176,1.);
#1176 = DIRECTION('',(-5.475619957451E-13,-1.,2.22044604925E-16));
#1177 = ORIENTED_EDGE('',*,*,#1178,.T.);
#1178 = EDGE_CURVE('',#1171,#669,#1179,.T.);
#1179 = LINE('',#1180,#1181);
#1180 = CARTESIAN_POINT('',(5.067712434441,0.449999999999,0.15));
#1181 = VECTOR('',#1182,1.);
#1182 = DIRECTION('',(-1.,5.475619957451E-13,0.));
#1183 = ORIENTED_EDGE('',*,*,#676,.F.);
#1184 = PLANE('',#1185);
#1185 = AXIS2_PLACEMENT_3D('',#1186,#1187,#1188);
#1186 = CARTESIAN_POINT('',(5.067712434441,0.949999999999,0.15));
#1187 = DIRECTION('',(1.215831870172E-28,2.22044604925E-16,1.));
#1188 = DIRECTION('',(1.,-5.475619957451E-13,0.));
#1189 = ADVANCED_FACE('',(#1190),#1233,.F.);
#1190 = FACE_BOUND('',#1191,.T.);
#1191 = EDGE_LOOP('',(#1192,#1202,#1210,#1218,#1224,#1225,#1226,#1227));
#1192 = ORIENTED_EDGE('',*,*,#1193,.F.);
#1193 = EDGE_CURVE('',#1194,#1196,#1198,.T.);
#1194 = VERTEX_POINT('',#1195);
#1195 = CARTESIAN_POINT('',(5.799999999996,0.449999999998,
    -9.992007221645E-17));
#1196 = VERTEX_POINT('',#1197);
#1197 = CARTESIAN_POINT('',(5.399999999996,0.449999999998,
    -9.992007221626E-17));
#1198 = LINE('',#1199,#1200);
#1199 = CARTESIAN_POINT('',(5.799999999996,0.449999999998,
    -9.992007221645E-17));
#1200 = VECTOR('',#1201,1.);
#1201 = DIRECTION('',(-1.,5.475619957451E-13,4.757399719786E-28));
#1202 = ORIENTED_EDGE('',*,*,#1203,.T.);
#1203 = EDGE_CURVE('',#1194,#1204,#1206,.T.);
#1204 = VERTEX_POINT('',#1205);
#1205 = CARTESIAN_POINT('',(5.799999999996,0.449999999998,0.15));
#1206 = LINE('',#1207,#1208);
#1207 = CARTESIAN_POINT('',(5.799999999996,0.449999999998,
    -9.992007221645E-17));
#1208 = VECTOR('',#1209,1.);
#1209 = DIRECTION('',(1.215831870172E-28,2.22044604925E-16,1.));
#1210 = ORIENTED_EDGE('',*,*,#1211,.T.);
#1211 = EDGE_CURVE('',#1204,#1212,#1214,.T.);
#1212 = VERTEX_POINT('',#1213);
#1213 = CARTESIAN_POINT('',(5.432287565549,0.449999999998,0.15));
#1214 = LINE('',#1215,#1216);
#1215 = CARTESIAN_POINT('',(5.799999999996,0.449999999998,0.15));
#1216 = VECTOR('',#1217,1.);
#1217 = DIRECTION('',(-1.,5.475619957451E-13,0.));
#1218 = ORIENTED_EDGE('',*,*,#1219,.T.);
#1219 = EDGE_CURVE('',#1212,#1092,#1220,.T.);
#1220 = LINE('',#1221,#1222);
#1221 = CARTESIAN_POINT('',(5.432287565549,0.449999999998,0.15));
#1222 = VECTOR('',#1223,1.);
#1223 = DIRECTION('',(-0.911437827767,4.991600735198E-13,0.411437827764)
  );
#1224 = ORIENTED_EDGE('',*,*,#1091,.F.);
#1225 = ORIENTED_EDGE('',*,*,#668,.F.);
#1226 = ORIENTED_EDGE('',*,*,#1178,.F.);
#1227 = ORIENTED_EDGE('',*,*,#1228,.F.);
#1228 = EDGE_CURVE('',#1196,#1171,#1229,.T.);
#1229 = LINE('',#1230,#1231);
#1230 = CARTESIAN_POINT('',(5.399999999996,0.449999999998,
    -9.992007221626E-17));
#1231 = VECTOR('',#1232,1.);
#1232 = DIRECTION('',(-0.911437827767,4.991600735198E-13,0.411437827764)
  );
#1233 = PLANE('',#1234);
#1234 = AXIS2_PLACEMENT_3D('',#1235,#1236,#1237);
#1235 = CARTESIAN_POINT('',(4.806657878055,0.449999999999,0.180930845716
    ));
#1236 = DIRECTION('',(5.475619957451E-13,1.,-4.726012253778E-16));
#1237 = DIRECTION('',(-2.587784701595E-28,-4.726012253778E-16,-1.));
#1238 = ADVANCED_FACE('',(#1239),#1264,.F.);
#1239 = FACE_BOUND('',#1240,.T.);
#1240 = EDGE_LOOP('',(#1241,#1249,#1250,#1258));
#1241 = ORIENTED_EDGE('',*,*,#1242,.F.);
#1242 = EDGE_CURVE('',#765,#1243,#1245,.T.);
#1243 = VERTEX_POINT('',#1244);
#1244 = CARTESIAN_POINT('',(8.758557026401E-13,4.150000000001,
    0.299999999999));
#1245 = LINE('',#1246,#1247);
#1246 = CARTESIAN_POINT('',(1.300000000001,4.15,0.299999999999));
#1247 = VECTOR('',#1248,1.);
#1248 = DIRECTION('',(-1.,5.472807199144E-13,-1.215207312365E-28));
#1249 = ORIENTED_EDGE('',*,*,#764,.T.);
#1250 = ORIENTED_EDGE('',*,*,#1251,.T.);
#1251 = EDGE_CURVE('',#767,#1252,#1254,.T.);
#1252 = VERTEX_POINT('',#1253);
#1253 = CARTESIAN_POINT('',(1.149496062597E-12,4.650000000001,
    0.299999999999));
#1254 = LINE('',#1255,#1256);
#1255 = CARTESIAN_POINT('',(1.300000000001,4.65,0.299999999999));
#1256 = VECTOR('',#1257,1.);
#1257 = DIRECTION('',(-1.,5.472807199144E-13,-1.215207312365E-28));
#1258 = ORIENTED_EDGE('',*,*,#1259,.F.);
#1259 = EDGE_CURVE('',#1243,#1252,#1260,.T.);
#1260 = LINE('',#1261,#1262);
#1261 = CARTESIAN_POINT('',(8.758557026401E-13,4.150000000001,
    0.299999999999));
#1262 = VECTOR('',#1263,1.);
#1263 = DIRECTION('',(5.472807199144E-13,1.,-2.22044604925E-16));
#1264 = PLANE('',#1265);
#1265 = AXIS2_PLACEMENT_3D('',#1266,#1267,#1268);
#1266 = CARTESIAN_POINT('',(1.300000000001,4.15,0.299999999999));
#1267 = DIRECTION('',(-0.,-2.22044604925E-16,-1.));
#1268 = DIRECTION('',(1.,-5.472807199144E-13,1.215207312365E-28));
#1269 = ADVANCED_FACE('',(#1270),#1320,.F.);
#1270 = FACE_BOUND('',#1271,.T.);
#1271 = EDGE_LOOP('',(#1272,#1282,#1290,#1298,#1304,#1305,#1306,#1314));
#1272 = ORIENTED_EDGE('',*,*,#1273,.F.);
#1273 = EDGE_CURVE('',#1274,#1276,#1278,.T.);
#1274 = VERTEX_POINT('',#1275);
#1275 = CARTESIAN_POINT('',(-0.699999999999,4.650000000001,
    -1.010302952409E-15));
#1276 = VERTEX_POINT('',#1277);
#1277 = CARTESIAN_POINT('',(-0.299999999999,4.650000000001,
    -1.010302952409E-15));
#1278 = LINE('',#1279,#1280);
#1279 = CARTESIAN_POINT('',(-0.699999999999,4.650000000001,
    -1.010302952409E-15));
#1280 = VECTOR('',#1281,1.);
#1281 = DIRECTION('',(1.,-5.472807199144E-13,5.97260703215E-28));
#1282 = ORIENTED_EDGE('',*,*,#1283,.T.);
#1283 = EDGE_CURVE('',#1274,#1284,#1286,.T.);
#1284 = VERTEX_POINT('',#1285);
#1285 = CARTESIAN_POINT('',(-0.699999999999,4.650000000001,0.15));
#1286 = LINE('',#1287,#1288);
#1287 = CARTESIAN_POINT('',(-0.699999999999,4.650000000001,
    -1.010302952409E-15));
#1288 = VECTOR('',#1289,1.);
#1289 = DIRECTION('',(0.,2.22044604925E-16,1.));
#1290 = ORIENTED_EDGE('',*,*,#1291,.T.);
#1291 = EDGE_CURVE('',#1284,#1292,#1294,.T.);
#1292 = VERTEX_POINT('',#1293);
#1293 = CARTESIAN_POINT('',(-0.332287565552,4.650000000001,0.15));
#1294 = LINE('',#1295,#1296);
#1295 = CARTESIAN_POINT('',(-0.699999999999,4.650000000001,0.15));
#1296 = VECTOR('',#1297,1.);
#1297 = DIRECTION('',(1.,-5.472807199144E-13,1.215207312365E-28));
#1298 = ORIENTED_EDGE('',*,*,#1299,.T.);
#1299 = EDGE_CURVE('',#1292,#1252,#1300,.T.);
#1300 = LINE('',#1301,#1302);
#1301 = CARTESIAN_POINT('',(-0.332287565552,4.650000000001,0.15));
#1302 = VECTOR('',#1303,1.);
#1303 = DIRECTION('',(0.911437827767,-4.987209929878E-13,0.411437827764)
  );
#1304 = ORIENTED_EDGE('',*,*,#1251,.F.);
#1305 = ORIENTED_EDGE('',*,*,#790,.T.);
#1306 = ORIENTED_EDGE('',*,*,#1307,.F.);
#1307 = EDGE_CURVE('',#1308,#783,#1310,.T.);
#1308 = VERTEX_POINT('',#1309);
#1309 = CARTESIAN_POINT('',(3.228756555695E-02,4.650000000001,0.15));
#1310 = LINE('',#1311,#1312);
#1311 = CARTESIAN_POINT('',(3.228756555695E-02,4.650000000001,0.15));
#1312 = VECTOR('',#1313,1.);
#1313 = DIRECTION('',(1.,-5.472807199144E-13,1.215207312365E-28));
#1314 = ORIENTED_EDGE('',*,*,#1315,.F.);
#1315 = EDGE_CURVE('',#1276,#1308,#1316,.T.);
#1316 = LINE('',#1317,#1318);
#1317 = CARTESIAN_POINT('',(-0.299999999999,4.650000000001,
    -1.010302952409E-15));
#1318 = VECTOR('',#1319,1.);
#1319 = DIRECTION('',(0.911437827767,-4.987209929878E-13,0.411437827764)
  );
#1320 = PLANE('',#1321);
#1321 = AXIS2_PLACEMENT_3D('',#1322,#1323,#1324);
#1322 = CARTESIAN_POINT('',(0.293342121943,4.650000000001,0.180930845716
    ));
#1323 = DIRECTION('',(-5.472807199144E-13,-1.,-2.851201552774E-17));
#1324 = DIRECTION('',(1.371248076207E-28,2.851201552774E-17,-1.));
#1325 = ADVANCED_FACE('',(#1326),#1344,.F.);
#1326 = FACE_BOUND('',#1327,.T.);
#1327 = EDGE_LOOP('',(#1328,#1336,#1342,#1343));
#1328 = ORIENTED_EDGE('',*,*,#1329,.F.);
#1329 = EDGE_CURVE('',#1330,#775,#1332,.T.);
#1330 = VERTEX_POINT('',#1331);
#1331 = CARTESIAN_POINT('',(3.228756555668E-02,4.150000000001,0.15));
#1332 = LINE('',#1333,#1334);
#1333 = CARTESIAN_POINT('',(3.228756555668E-02,4.150000000001,0.15));
#1334 = VECTOR('',#1335,1.);
#1335 = DIRECTION('',(1.,-5.472807199144E-13,1.215207312365E-28));
#1336 = ORIENTED_EDGE('',*,*,#1337,.T.);
#1337 = EDGE_CURVE('',#1330,#1308,#1338,.T.);
#1338 = LINE('',#1339,#1340);
#1339 = CARTESIAN_POINT('',(3.228756555668E-02,4.150000000001,0.15));
#1340 = VECTOR('',#1341,1.);
#1341 = DIRECTION('',(5.472807199144E-13,1.,-2.22044604925E-16));
#1342 = ORIENTED_EDGE('',*,*,#1307,.T.);
#1343 = ORIENTED_EDGE('',*,*,#782,.T.);
#1344 = PLANE('',#1345);
#1345 = AXIS2_PLACEMENT_3D('',#1346,#1347,#1348);
#1346 = CARTESIAN_POINT('',(3.228756555668E-02,4.150000000001,0.15));
#1347 = DIRECTION('',(0.,2.22044604925E-16,1.));
#1348 = DIRECTION('',(-1.,5.472807199144E-13,-1.215207312365E-28));
#1349 = ADVANCED_FACE('',(#1350),#1393,.T.);
#1350 = FACE_BOUND('',#1351,.F.);
#1351 = EDGE_LOOP('',(#1352,#1362,#1370,#1378,#1384,#1385,#1386,#1387));
#1352 = ORIENTED_EDGE('',*,*,#1353,.F.);
#1353 = EDGE_CURVE('',#1354,#1356,#1358,.T.);
#1354 = VERTEX_POINT('',#1355);
#1355 = CARTESIAN_POINT('',(-0.699999999999,4.150000000001,
    -8.992806499467E-16));
#1356 = VERTEX_POINT('',#1357);
#1357 = CARTESIAN_POINT('',(-0.299999999999,4.150000000001,
    -8.992806499464E-16));
#1358 = LINE('',#1359,#1360);
#1359 = CARTESIAN_POINT('',(-0.699999999999,4.150000000001,
    -8.992806499467E-16));
#1360 = VECTOR('',#1361,1.);
#1361 = DIRECTION('',(1.,-5.472807199144E-13,5.97260703215E-28));
#1362 = ORIENTED_EDGE('',*,*,#1363,.T.);
#1363 = EDGE_CURVE('',#1354,#1364,#1366,.T.);
#1364 = VERTEX_POINT('',#1365);
#1365 = CARTESIAN_POINT('',(-0.699999999999,4.150000000001,0.15));
#1366 = LINE('',#1367,#1368);
#1367 = CARTESIAN_POINT('',(-0.699999999999,4.150000000001,
    -8.992806499467E-16));
#1368 = VECTOR('',#1369,1.);
#1369 = DIRECTION('',(0.,2.22044604925E-16,1.));
#1370 = ORIENTED_EDGE('',*,*,#1371,.T.);
#1371 = EDGE_CURVE('',#1364,#1372,#1374,.T.);
#1372 = VERTEX_POINT('',#1373);
#1373 = CARTESIAN_POINT('',(-0.332287565552,4.150000000001,0.15));
#1374 = LINE('',#1375,#1376);
#1375 = CARTESIAN_POINT('',(-0.699999999999,4.150000000001,0.15));
#1376 = VECTOR('',#1377,1.);
#1377 = DIRECTION('',(1.,-5.472807199144E-13,1.215207312365E-28));
#1378 = ORIENTED_EDGE('',*,*,#1379,.T.);
#1379 = EDGE_CURVE('',#1372,#1243,#1380,.T.);
#1380 = LINE('',#1381,#1382);
#1381 = CARTESIAN_POINT('',(-0.332287565552,4.150000000001,0.15));
#1382 = VECTOR('',#1383,1.);
#1383 = DIRECTION('',(0.911437827767,-4.987209929878E-13,0.411437827764)
  );
#1384 = ORIENTED_EDGE('',*,*,#1242,.F.);
#1385 = ORIENTED_EDGE('',*,*,#774,.T.);
#1386 = ORIENTED_EDGE('',*,*,#1329,.F.);
#1387 = ORIENTED_EDGE('',*,*,#1388,.F.);
#1388 = EDGE_CURVE('',#1356,#1330,#1389,.T.);
#1389 = LINE('',#1390,#1391);
#1390 = CARTESIAN_POINT('',(-0.299999999999,4.150000000001,
    -8.992806499464E-16));
#1391 = VECTOR('',#1392,1.);
#1392 = DIRECTION('',(0.911437827767,-4.987209929878E-13,0.411437827764)
  );
#1393 = PLANE('',#1394);
#1394 = AXIS2_PLACEMENT_3D('',#1395,#1396,#1397);
#1395 = CARTESIAN_POINT('',(0.293342121943,4.150000000001,0.180930845716
    ));
#1396 = DIRECTION('',(-5.472807199144E-13,-1.,-2.851201552774E-17));
#1397 = DIRECTION('',(1.371248076207E-28,2.851201552774E-17,-1.));
#1398 = ADVANCED_FACE('',(#1399),#1456,.T.);
#1399 = FACE_BOUND('',#1400,.T.);
#1400 = EDGE_LOOP('',(#1401,#1411,#1419,#1427,#1435,#1441,#1442,#1450));
#1401 = ORIENTED_EDGE('',*,*,#1402,.F.);
#1402 = EDGE_CURVE('',#1403,#1405,#1407,.T.);
#1403 = VERTEX_POINT('',#1404);
#1404 = CARTESIAN_POINT('',(5.799999999997,4.149999999999,
    -8.992806499467E-16));
#1405 = VERTEX_POINT('',#1406);
#1406 = CARTESIAN_POINT('',(5.399999999997,4.149999999999,
    -8.992806499464E-16));
#1407 = LINE('',#1408,#1409);
#1408 = CARTESIAN_POINT('',(5.799999999997,4.149999999999,
    -8.992806499467E-16));
#1409 = VECTOR('',#1410,1.);
#1410 = DIRECTION('',(-1.,-2.812758307739E-16,5.973856147765E-28));
#1411 = ORIENTED_EDGE('',*,*,#1412,.T.);
#1412 = EDGE_CURVE('',#1403,#1413,#1415,.T.);
#1413 = VERTEX_POINT('',#1414);
#1414 = CARTESIAN_POINT('',(5.799999999997,4.149999999999,0.15));
#1415 = LINE('',#1416,#1417);
#1416 = CARTESIAN_POINT('',(5.799999999997,4.149999999999,
    -8.992806499467E-16));
#1417 = VECTOR('',#1418,1.);
#1418 = DIRECTION('',(1.215831870172E-28,2.22044604925E-16,1.));
#1419 = ORIENTED_EDGE('',*,*,#1420,.T.);
#1420 = EDGE_CURVE('',#1413,#1421,#1423,.T.);
#1421 = VERTEX_POINT('',#1422);
#1422 = CARTESIAN_POINT('',(5.43228756555,4.149999999999,0.15));
#1423 = LINE('',#1424,#1425);
#1424 = CARTESIAN_POINT('',(5.799999999997,4.149999999999,0.15));
#1425 = VECTOR('',#1426,1.);
#1426 = DIRECTION('',(-1.,-2.812758307739E-16,1.216456427979E-28));
#1427 = ORIENTED_EDGE('',*,*,#1428,.T.);
#1428 = EDGE_CURVE('',#1421,#1429,#1431,.T.);
#1429 = VERTEX_POINT('',#1430);
#1430 = CARTESIAN_POINT('',(5.099999999997,4.149999999999,0.299999999999
    ));
#1431 = LINE('',#1432,#1433);
#1432 = CARTESIAN_POINT('',(5.43228756555,4.149999999999,0.15));
#1433 = VECTOR('',#1434,1.);
#1434 = DIRECTION('',(-0.911437827767,-1.65007882287E-16,0.411437827764)
  );
#1435 = ORIENTED_EDGE('',*,*,#1436,.F.);
#1436 = EDGE_CURVE('',#823,#1429,#1437,.T.);
#1437 = LINE('',#1438,#1439);
#1438 = CARTESIAN_POINT('',(3.799999999997,4.149999999999,0.299999999999
    ));
#1439 = VECTOR('',#1440,1.);
#1440 = DIRECTION('',(1.,2.812758307739E-16,-1.216456427979E-28));
#1441 = ORIENTED_EDGE('',*,*,#822,.T.);
#1442 = ORIENTED_EDGE('',*,*,#1443,.F.);
#1443 = EDGE_CURVE('',#1444,#825,#1446,.T.);
#1444 = VERTEX_POINT('',#1445);
#1445 = CARTESIAN_POINT('',(5.067712434442,4.149999999999,0.15));
#1446 = LINE('',#1447,#1448);
#1447 = CARTESIAN_POINT('',(5.067712434442,4.149999999999,0.15));
#1448 = VECTOR('',#1449,1.);
#1449 = DIRECTION('',(-1.,-2.812758307739E-16,1.216456427979E-28));
#1450 = ORIENTED_EDGE('',*,*,#1451,.F.);
#1451 = EDGE_CURVE('',#1405,#1444,#1452,.T.);
#1452 = LINE('',#1453,#1454);
#1453 = CARTESIAN_POINT('',(5.399999999997,4.149999999999,
    -8.992806499464E-16));
#1454 = VECTOR('',#1455,1.);
#1455 = DIRECTION('',(-0.911437827767,-1.65007882287E-16,0.411437827764)
  );
#1456 = PLANE('',#1457);
#1457 = AXIS2_PLACEMENT_3D('',#1458,#1459,#1460);
#1458 = CARTESIAN_POINT('',(4.806657878056,4.149999999999,0.180930845716
    ));
#1459 = DIRECTION('',(2.812758307739E-16,-1.,-2.851201552774E-17));
#1460 = DIRECTION('',(1.216536625388E-28,-2.851201552774E-17,1.));
#1461 = ADVANCED_FACE('',(#1462),#1480,.F.);
#1462 = FACE_BOUND('',#1463,.F.);
#1463 = EDGE_LOOP('',(#1464,#1465,#1473,#1479));
#1464 = ORIENTED_EDGE('',*,*,#1443,.F.);
#1465 = ORIENTED_EDGE('',*,*,#1466,.T.);
#1466 = EDGE_CURVE('',#1444,#1467,#1469,.T.);
#1467 = VERTEX_POINT('',#1468);
#1468 = CARTESIAN_POINT('',(5.067712434442,4.649999999999,0.15));
#1469 = LINE('',#1470,#1471);
#1470 = CARTESIAN_POINT('',(5.067712434442,4.149999999999,0.15));
#1471 = VECTOR('',#1472,1.);
#1472 = DIRECTION('',(-2.812758307739E-16,1.,-2.22044604925E-16));
#1473 = ORIENTED_EDGE('',*,*,#1474,.T.);
#1474 = EDGE_CURVE('',#1467,#841,#1475,.T.);
#1475 = LINE('',#1476,#1477);
#1476 = CARTESIAN_POINT('',(5.067712434442,4.649999999999,0.15));
#1477 = VECTOR('',#1478,1.);
#1478 = DIRECTION('',(-1.,-2.812758307739E-16,1.216456427979E-28));
#1479 = ORIENTED_EDGE('',*,*,#848,.T.);
#1480 = PLANE('',#1481);
#1481 = AXIS2_PLACEMENT_3D('',#1482,#1483,#1484);
#1482 = CARTESIAN_POINT('',(5.067712434442,4.149999999999,0.15));
#1483 = DIRECTION('',(1.215831870172E-28,2.22044604925E-16,1.));
#1484 = DIRECTION('',(-1.,-2.812758307739E-16,1.216456427979E-28));
#1485 = ADVANCED_FACE('',(#1486),#1536,.F.);
#1486 = FACE_BOUND('',#1487,.F.);
#1487 = EDGE_LOOP('',(#1488,#1498,#1506,#1514,#1522,#1528,#1529,#1530));
#1488 = ORIENTED_EDGE('',*,*,#1489,.F.);
#1489 = EDGE_CURVE('',#1490,#1492,#1494,.T.);
#1490 = VERTEX_POINT('',#1491);
#1491 = CARTESIAN_POINT('',(5.799999999997,4.649999999999,
    -1.010302952409E-15));
#1492 = VERTEX_POINT('',#1493);
#1493 = CARTESIAN_POINT('',(5.399999999997,4.649999999999,
    -1.010302952409E-15));
#1494 = LINE('',#1495,#1496);
#1495 = CARTESIAN_POINT('',(5.799999999997,4.649999999999,
    -1.010302952409E-15));
#1496 = VECTOR('',#1497,1.);
#1497 = DIRECTION('',(-1.,-2.812758307739E-16,5.973856147765E-28));
#1498 = ORIENTED_EDGE('',*,*,#1499,.T.);
#1499 = EDGE_CURVE('',#1490,#1500,#1502,.T.);
#1500 = VERTEX_POINT('',#1501);
#1501 = CARTESIAN_POINT('',(5.799999999997,4.649999999999,0.15));
#1502 = LINE('',#1503,#1504);
#1503 = CARTESIAN_POINT('',(5.799999999997,4.649999999999,
    -1.010302952409E-15));
#1504 = VECTOR('',#1505,1.);
#1505 = DIRECTION('',(1.215831870172E-28,2.22044604925E-16,1.));
#1506 = ORIENTED_EDGE('',*,*,#1507,.T.);
#1507 = EDGE_CURVE('',#1500,#1508,#1510,.T.);
#1508 = VERTEX_POINT('',#1509);
#1509 = CARTESIAN_POINT('',(5.43228756555,4.649999999999,0.15));
#1510 = LINE('',#1511,#1512);
#1511 = CARTESIAN_POINT('',(5.799999999997,4.649999999999,0.15));
#1512 = VECTOR('',#1513,1.);
#1513 = DIRECTION('',(-1.,-2.812758307739E-16,1.216456427979E-28));
#1514 = ORIENTED_EDGE('',*,*,#1515,.T.);
#1515 = EDGE_CURVE('',#1508,#1516,#1518,.T.);
#1516 = VERTEX_POINT('',#1517);
#1517 = CARTESIAN_POINT('',(5.099999999997,4.649999999999,0.299999999999
    ));
#1518 = LINE('',#1519,#1520);
#1519 = CARTESIAN_POINT('',(5.43228756555,4.649999999999,0.15));
#1520 = VECTOR('',#1521,1.);
#1521 = DIRECTION('',(-0.911437827767,-1.65007882287E-16,0.411437827764)
  );
#1522 = ORIENTED_EDGE('',*,*,#1523,.F.);
#1523 = EDGE_CURVE('',#833,#1516,#1524,.T.);
#1524 = LINE('',#1525,#1526);
#1525 = CARTESIAN_POINT('',(3.799999999997,4.649999999999,0.299999999999
    ));
#1526 = VECTOR('',#1527,1.);
#1527 = DIRECTION('',(1.,2.812758307739E-16,-1.216456427979E-28));
#1528 = ORIENTED_EDGE('',*,*,#840,.T.);
#1529 = ORIENTED_EDGE('',*,*,#1474,.F.);
#1530 = ORIENTED_EDGE('',*,*,#1531,.F.);
#1531 = EDGE_CURVE('',#1492,#1467,#1532,.T.);
#1532 = LINE('',#1533,#1534);
#1533 = CARTESIAN_POINT('',(5.399999999997,4.649999999999,
    -1.010302952409E-15));
#1534 = VECTOR('',#1535,1.);
#1535 = DIRECTION('',(-0.911437827767,-1.65007882287E-16,0.411437827764)
  );
#1536 = PLANE('',#1537);
#1537 = AXIS2_PLACEMENT_3D('',#1538,#1539,#1540);
#1538 = CARTESIAN_POINT('',(4.806657878056,4.649999999999,0.180930845716
    ));
#1539 = DIRECTION('',(2.812758307739E-16,-1.,-2.851201552774E-17));
#1540 = DIRECTION('',(1.216536625388E-28,-2.851201552774E-17,1.));
#1541 = ADVANCED_FACE('',(#1542),#1553,.F.);
#1542 = FACE_BOUND('',#1543,.F.);
#1543 = EDGE_LOOP('',(#1544,#1545,#1546,#1547));
#1544 = ORIENTED_EDGE('',*,*,#1436,.F.);
#1545 = ORIENTED_EDGE('',*,*,#832,.T.);
#1546 = ORIENTED_EDGE('',*,*,#1523,.T.);
#1547 = ORIENTED_EDGE('',*,*,#1548,.F.);
#1548 = EDGE_CURVE('',#1429,#1516,#1549,.T.);
#1549 = LINE('',#1550,#1551);
#1550 = CARTESIAN_POINT('',(5.099999999997,4.149999999999,0.299999999999
    ));
#1551 = VECTOR('',#1552,1.);
#1552 = DIRECTION('',(-2.812758307739E-16,1.,-2.22044604925E-16));
#1553 = PLANE('',#1554);
#1554 = AXIS2_PLACEMENT_3D('',#1555,#1556,#1557);
#1555 = CARTESIAN_POINT('',(3.799999999997,4.149999999999,0.299999999999
    ));
#1556 = DIRECTION('',(-1.215831870172E-28,-2.22044604925E-16,-1.));
#1557 = DIRECTION('',(1.,2.812758307739E-16,-1.216456427979E-28));
#1558 = ADVANCED_FACE('',(#1559),#1578,.T.);
#1559 = FACE_BOUND('',#1560,.F.);
#1560 = EDGE_LOOP('',(#1561,#1569,#1576,#1577));
#1561 = ORIENTED_EDGE('',*,*,#1562,.T.);
#1562 = EDGE_CURVE('',#890,#1563,#1565,.T.);
#1563 = VERTEX_POINT('',#1564);
#1564 = CARTESIAN_POINT('',(3.585762521642,2.514237478357,1.2));
#1565 = LINE('',#1566,#1567);
#1566 = CARTESIAN_POINT('',(3.585762521642,2.514237478357,1.1));
#1567 = VECTOR('',#1568,1.);
#1568 = DIRECTION('',(0.,0.,1.));
#1569 = ORIENTED_EDGE('',*,*,#1570,.T.);
#1570 = EDGE_CURVE('',#1563,#1563,#1571,.T.);
#1571 = CIRCLE('',#1572,1.);
#1572 = AXIS2_PLACEMENT_3D('',#1573,#1574,#1575);
#1573 = CARTESIAN_POINT('',(2.585762521642,2.514237478357,1.2));
#1574 = DIRECTION('',(0.,0.,1.));
#1575 = DIRECTION('',(1.,0.,0.));
#1576 = ORIENTED_EDGE('',*,*,#1562,.F.);
#1577 = ORIENTED_EDGE('',*,*,#889,.F.);
#1578 = CYLINDRICAL_SURFACE('',#1579,1.);
#1579 = AXIS2_PLACEMENT_3D('',#1580,#1581,#1582);
#1580 = CARTESIAN_POINT('',(2.585762521642,2.514237478357,1.1));
#1581 = DIRECTION('',(-0.,-0.,-1.));
#1582 = DIRECTION('',(1.,0.,0.));
#1583 = ADVANCED_FACE('',(#1584),#1600,.F.);
#1584 = FACE_BOUND('',#1585,.F.);
#1585 = EDGE_LOOP('',(#1586,#1592,#1593,#1599));
#1586 = ORIENTED_EDGE('',*,*,#1587,.T.);
#1587 = EDGE_CURVE('',#923,#1010,#1588,.T.);
#1588 = LINE('',#1589,#1590);
#1589 = CARTESIAN_POINT('',(-0.7,0.95,-2.10942374679E-16));
#1590 = VECTOR('',#1591,1.);
#1591 = DIRECTION('',(0.,-1.,2.22044604925E-16));
#1592 = ORIENTED_EDGE('',*,*,#1009,.T.);
#1593 = ORIENTED_EDGE('',*,*,#1594,.F.);
#1594 = EDGE_CURVE('',#925,#1012,#1595,.T.);
#1595 = LINE('',#1596,#1597);
#1596 = CARTESIAN_POINT('',(-0.3,0.95,-2.109423746788E-16));
#1597 = VECTOR('',#1598,1.);
#1598 = DIRECTION('',(0.,-1.,2.22044604925E-16));
#1599 = ORIENTED_EDGE('',*,*,#922,.F.);
#1600 = PLANE('',#1601);
#1601 = AXIS2_PLACEMENT_3D('',#1602,#1603,#1604);
#1602 = CARTESIAN_POINT('',(-0.7,0.95,-2.10942374679E-16));
#1603 = DIRECTION('',(-4.757399719786E-28,2.22044604925E-16,1.));
#1604 = DIRECTION('',(1.,1.05635494125E-43,4.757399719786E-28));
#1605 = ADVANCED_FACE('',(#1606),#1612,.F.);
#1606 = FACE_BOUND('',#1607,.F.);
#1607 = EDGE_LOOP('',(#1608,#1609,#1610,#1611));
#1608 = ORIENTED_EDGE('',*,*,#1594,.T.);
#1609 = ORIENTED_EDGE('',*,*,#1051,.T.);
#1610 = ORIENTED_EDGE('',*,*,#986,.F.);
#1611 = ORIENTED_EDGE('',*,*,#971,.F.);
#1612 = PLANE('',#1613);
#1613 = AXIS2_PLACEMENT_3D('',#1614,#1615,#1616);
#1614 = CARTESIAN_POINT('',(-0.3,0.95,-2.109423746788E-16));
#1615 = DIRECTION('',(-0.411437827764,2.023798523803E-16,0.911437827767)
  );
#1616 = DIRECTION('',(0.911437827767,9.135754991696E-17,0.411437827764)
  );
#1617 = ADVANCED_FACE('',(#1618),#1629,.T.);
#1618 = FACE_BOUND('',#1619,.T.);
#1619 = EDGE_LOOP('',(#1620,#1626,#1627,#1628));
#1620 = ORIENTED_EDGE('',*,*,#1621,.T.);
#1621 = EDGE_CURVE('',#941,#1028,#1622,.T.);
#1622 = LINE('',#1623,#1624);
#1623 = CARTESIAN_POINT('',(-0.332287565553,0.95,0.15));
#1624 = VECTOR('',#1625,1.);
#1625 = DIRECTION('',(0.,-1.,2.22044604925E-16));
#1626 = ORIENTED_EDGE('',*,*,#1035,.T.);
#1627 = ORIENTED_EDGE('',*,*,#1068,.F.);
#1628 = ORIENTED_EDGE('',*,*,#948,.F.);
#1629 = PLANE('',#1630);
#1630 = AXIS2_PLACEMENT_3D('',#1631,#1632,#1633);
#1631 = CARTESIAN_POINT('',(-0.332287565553,0.95,0.15));
#1632 = DIRECTION('',(-0.411437827764,2.023798523803E-16,0.911437827767)
  );
#1633 = DIRECTION('',(0.911437827767,9.135754991696E-17,0.411437827764)
  );
#1634 = ADVANCED_FACE('',(#1635),#1646,.T.);
#1635 = FACE_BOUND('',#1636,.T.);
#1636 = EDGE_LOOP('',(#1637,#1643,#1644,#1645));
#1637 = ORIENTED_EDGE('',*,*,#1638,.T.);
#1638 = EDGE_CURVE('',#933,#1020,#1639,.T.);
#1639 = LINE('',#1640,#1641);
#1640 = CARTESIAN_POINT('',(-0.7,0.95,0.15));
#1641 = VECTOR('',#1642,1.);
#1642 = DIRECTION('',(0.,-1.,2.22044604925E-16));
#1643 = ORIENTED_EDGE('',*,*,#1027,.T.);
#1644 = ORIENTED_EDGE('',*,*,#1621,.F.);
#1645 = ORIENTED_EDGE('',*,*,#940,.F.);
#1646 = PLANE('',#1647);
#1647 = AXIS2_PLACEMENT_3D('',#1648,#1649,#1650);
#1648 = CARTESIAN_POINT('',(-0.7,0.95,0.15));
#1649 = DIRECTION('',(0.,2.22044604925E-16,1.));
#1650 = DIRECTION('',(1.,0.,0.));
#1651 = ADVANCED_FACE('',(#1652),#1658,.T.);
#1652 = FACE_BOUND('',#1653,.T.);
#1653 = EDGE_LOOP('',(#1654,#1655,#1656,#1657));
#1654 = ORIENTED_EDGE('',*,*,#1587,.T.);
#1655 = ORIENTED_EDGE('',*,*,#1019,.T.);
#1656 = ORIENTED_EDGE('',*,*,#1638,.F.);
#1657 = ORIENTED_EDGE('',*,*,#932,.F.);
#1658 = PLANE('',#1659);
#1659 = AXIS2_PLACEMENT_3D('',#1660,#1661,#1662);
#1660 = CARTESIAN_POINT('',(-0.7,0.95,-2.10942374679E-16));
#1661 = DIRECTION('',(-1.,0.,0.));
#1662 = DIRECTION('',(0.,2.22044604925E-16,1.));
#1663 = ADVANCED_FACE('',(#1664),#1675,.T.);
#1664 = FACE_BOUND('',#1665,.F.);
#1665 = EDGE_LOOP('',(#1666,#1672,#1673,#1674));
#1666 = ORIENTED_EDGE('',*,*,#1667,.T.);
#1667 = EDGE_CURVE('',#1132,#1212,#1668,.T.);
#1668 = LINE('',#1669,#1670);
#1669 = CARTESIAN_POINT('',(5.43228756555,0.949999999998,0.15));
#1670 = VECTOR('',#1671,1.);
#1671 = DIRECTION('',(-5.475619957451E-13,-1.,2.22044604925E-16));
#1672 = ORIENTED_EDGE('',*,*,#1219,.T.);
#1673 = ORIENTED_EDGE('',*,*,#1099,.F.);
#1674 = ORIENTED_EDGE('',*,*,#1139,.F.);
#1675 = PLANE('',#1676);
#1676 = AXIS2_PLACEMENT_3D('',#1677,#1678,#1679);
#1677 = CARTESIAN_POINT('',(5.43228756555,0.949999999998,0.15));
#1678 = DIRECTION('',(0.411437827764,-2.250853382428E-13,0.911437827767)
  );
#1679 = DIRECTION('',(0.911437827767,-4.991600735198E-13,-0.411437827764
    ));
#1680 = ADVANCED_FACE('',(#1681),#1697,.F.);
#1681 = FACE_BOUND('',#1682,.T.);
#1682 = EDGE_LOOP('',(#1683,#1689,#1690,#1696));
#1683 = ORIENTED_EDGE('',*,*,#1684,.T.);
#1684 = EDGE_CURVE('',#1114,#1194,#1685,.T.);
#1685 = LINE('',#1686,#1687);
#1686 = CARTESIAN_POINT('',(5.799999999997,0.949999999998,
    -2.10942374679E-16));
#1687 = VECTOR('',#1688,1.);
#1688 = DIRECTION('',(-5.475619957451E-13,-1.,2.22044604925E-16));
#1689 = ORIENTED_EDGE('',*,*,#1193,.T.);
#1690 = ORIENTED_EDGE('',*,*,#1691,.F.);
#1691 = EDGE_CURVE('',#1116,#1196,#1692,.T.);
#1692 = LINE('',#1693,#1694);
#1693 = CARTESIAN_POINT('',(5.399999999997,0.949999999998,
    -2.109423746788E-16));
#1694 = VECTOR('',#1695,1.);
#1695 = DIRECTION('',(-5.475619957451E-13,-1.,2.22044604925E-16));
#1696 = ORIENTED_EDGE('',*,*,#1113,.F.);
#1697 = PLANE('',#1698);
#1698 = AXIS2_PLACEMENT_3D('',#1699,#1700,#1701);
#1699 = CARTESIAN_POINT('',(5.799999999997,0.949999999998,
    -2.10942374679E-16));
#1700 = DIRECTION('',(5.973231589958E-28,2.22044604925E-16,1.));
#1701 = DIRECTION('',(1.,-5.475619957451E-13,-4.757399719786E-28));
#1702 = ADVANCED_FACE('',(#1703),#1709,.F.);
#1703 = FACE_BOUND('',#1704,.T.);
#1704 = EDGE_LOOP('',(#1705,#1706,#1707,#1708));
#1705 = ORIENTED_EDGE('',*,*,#1691,.T.);
#1706 = ORIENTED_EDGE('',*,*,#1228,.T.);
#1707 = ORIENTED_EDGE('',*,*,#1170,.F.);
#1708 = ORIENTED_EDGE('',*,*,#1155,.F.);
#1709 = PLANE('',#1710);
#1710 = AXIS2_PLACEMENT_3D('',#1711,#1712,#1713);
#1711 = CARTESIAN_POINT('',(5.399999999997,0.949999999998,
    -2.109423746788E-16));
#1712 = DIRECTION('',(0.411437827764,-2.250853382428E-13,0.911437827767)
  );
#1713 = DIRECTION('',(0.911437827767,-4.991600735198E-13,-0.411437827764
    ));
#1714 = ADVANCED_FACE('',(#1715),#1726,.T.);
#1715 = FACE_BOUND('',#1716,.F.);
#1716 = EDGE_LOOP('',(#1717,#1723,#1724,#1725));
#1717 = ORIENTED_EDGE('',*,*,#1718,.T.);
#1718 = EDGE_CURVE('',#1124,#1204,#1719,.T.);
#1719 = LINE('',#1720,#1721);
#1720 = CARTESIAN_POINT('',(5.799999999997,0.949999999998,0.15));
#1721 = VECTOR('',#1722,1.);
#1722 = DIRECTION('',(-5.475619957451E-13,-1.,2.22044604925E-16));
#1723 = ORIENTED_EDGE('',*,*,#1211,.T.);
#1724 = ORIENTED_EDGE('',*,*,#1667,.F.);
#1725 = ORIENTED_EDGE('',*,*,#1131,.F.);
#1726 = PLANE('',#1727);
#1727 = AXIS2_PLACEMENT_3D('',#1728,#1729,#1730);
#1728 = CARTESIAN_POINT('',(5.799999999997,0.949999999998,0.15));
#1729 = DIRECTION('',(1.215831870172E-28,2.22044604925E-16,1.));
#1730 = DIRECTION('',(1.,-5.475619957451E-13,0.));
#1731 = ADVANCED_FACE('',(#1732),#1738,.T.);
#1732 = FACE_BOUND('',#1733,.F.);
#1733 = EDGE_LOOP('',(#1734,#1735,#1736,#1737));
#1734 = ORIENTED_EDGE('',*,*,#1684,.T.);
#1735 = ORIENTED_EDGE('',*,*,#1203,.T.);
#1736 = ORIENTED_EDGE('',*,*,#1718,.F.);
#1737 = ORIENTED_EDGE('',*,*,#1123,.F.);
#1738 = PLANE('',#1739);
#1739 = AXIS2_PLACEMENT_3D('',#1740,#1741,#1742);
#1740 = CARTESIAN_POINT('',(5.799999999997,0.949999999998,
    -2.10942374679E-16));
#1741 = DIRECTION('',(1.,-5.475619957451E-13,0.));
#1742 = DIRECTION('',(-1.215831870172E-28,-2.22044604925E-16,-1.));
#1743 = ADVANCED_FACE('',(#1744),#1755,.T.);
#1744 = FACE_BOUND('',#1745,.F.);
#1745 = EDGE_LOOP('',(#1746,#1752,#1753,#1754));
#1746 = ORIENTED_EDGE('',*,*,#1747,.T.);
#1747 = EDGE_CURVE('',#1372,#1292,#1748,.T.);
#1748 = LINE('',#1749,#1750);
#1749 = CARTESIAN_POINT('',(-0.332287565552,4.150000000001,0.15));
#1750 = VECTOR('',#1751,1.);
#1751 = DIRECTION('',(5.472807199144E-13,1.,-2.22044604925E-16));
#1752 = ORIENTED_EDGE('',*,*,#1299,.T.);
#1753 = ORIENTED_EDGE('',*,*,#1259,.F.);
#1754 = ORIENTED_EDGE('',*,*,#1379,.F.);
#1755 = PLANE('',#1756);
#1756 = AXIS2_PLACEMENT_3D('',#1757,#1758,#1759);
#1757 = CARTESIAN_POINT('',(-0.332287565552,4.150000000001,0.15));
#1758 = DIRECTION('',(-0.411437827764,2.253743704308E-13,0.911437827767)
  );
#1759 = DIRECTION('',(-0.911437827767,4.987209929878E-13,-0.411437827764
    ));
#1760 = ADVANCED_FACE('',(#1761),#1777,.F.);
#1761 = FACE_BOUND('',#1762,.T.);
#1762 = EDGE_LOOP('',(#1763,#1769,#1770,#1776));
#1763 = ORIENTED_EDGE('',*,*,#1764,.T.);
#1764 = EDGE_CURVE('',#1354,#1274,#1765,.T.);
#1765 = LINE('',#1766,#1767);
#1766 = CARTESIAN_POINT('',(-0.699999999999,4.150000000001,
    -8.992806499467E-16));
#1767 = VECTOR('',#1768,1.);
#1768 = DIRECTION('',(5.472807199144E-13,1.,-2.22044604925E-16));
#1769 = ORIENTED_EDGE('',*,*,#1273,.T.);
#1770 = ORIENTED_EDGE('',*,*,#1771,.F.);
#1771 = EDGE_CURVE('',#1356,#1276,#1772,.T.);
#1772 = LINE('',#1773,#1774);
#1773 = CARTESIAN_POINT('',(-0.299999999999,4.150000000001,
    -8.992806499464E-16));
#1774 = VECTOR('',#1775,1.);
#1775 = DIRECTION('',(5.472807199144E-13,1.,-2.22044604925E-16));
#1776 = ORIENTED_EDGE('',*,*,#1353,.F.);
#1777 = PLANE('',#1778);
#1778 = AXIS2_PLACEMENT_3D('',#1779,#1780,#1781);
#1779 = CARTESIAN_POINT('',(-0.699999999999,4.150000000001,
    -8.992806499467E-16));
#1780 = DIRECTION('',(-4.757399719786E-28,2.22044604925E-16,1.));
#1781 = DIRECTION('',(-1.,5.472807199144E-13,-5.97260703215E-28));
#1782 = ADVANCED_FACE('',(#1783),#1789,.F.);
#1783 = FACE_BOUND('',#1784,.T.);
#1784 = EDGE_LOOP('',(#1785,#1786,#1787,#1788));
#1785 = ORIENTED_EDGE('',*,*,#1771,.T.);
#1786 = ORIENTED_EDGE('',*,*,#1315,.T.);
#1787 = ORIENTED_EDGE('',*,*,#1337,.F.);
#1788 = ORIENTED_EDGE('',*,*,#1388,.F.);
#1789 = PLANE('',#1790);
#1790 = AXIS2_PLACEMENT_3D('',#1791,#1792,#1793);
#1791 = CARTESIAN_POINT('',(-0.299999999999,4.150000000001,
    -8.992806499464E-16));
#1792 = DIRECTION('',(-0.411437827764,2.253743704308E-13,0.911437827767)
  );
#1793 = DIRECTION('',(-0.911437827767,4.987209929878E-13,-0.411437827764
    ));
#1794 = ADVANCED_FACE('',(#1795),#1806,.T.);
#1795 = FACE_BOUND('',#1796,.F.);
#1796 = EDGE_LOOP('',(#1797,#1803,#1804,#1805));
#1797 = ORIENTED_EDGE('',*,*,#1798,.T.);
#1798 = EDGE_CURVE('',#1364,#1284,#1799,.T.);
#1799 = LINE('',#1800,#1801);
#1800 = CARTESIAN_POINT('',(-0.699999999999,4.150000000001,0.15));
#1801 = VECTOR('',#1802,1.);
#1802 = DIRECTION('',(5.472807199144E-13,1.,-2.22044604925E-16));
#1803 = ORIENTED_EDGE('',*,*,#1291,.T.);
#1804 = ORIENTED_EDGE('',*,*,#1747,.F.);
#1805 = ORIENTED_EDGE('',*,*,#1371,.F.);
#1806 = PLANE('',#1807);
#1807 = AXIS2_PLACEMENT_3D('',#1808,#1809,#1810);
#1808 = CARTESIAN_POINT('',(-0.699999999999,4.150000000001,0.15));
#1809 = DIRECTION('',(0.,2.22044604925E-16,1.));
#1810 = DIRECTION('',(-1.,5.472807199144E-13,-1.215207312365E-28));
#1811 = ADVANCED_FACE('',(#1812),#1818,.T.);
#1812 = FACE_BOUND('',#1813,.F.);
#1813 = EDGE_LOOP('',(#1814,#1815,#1816,#1817));
#1814 = ORIENTED_EDGE('',*,*,#1764,.T.);
#1815 = ORIENTED_EDGE('',*,*,#1283,.T.);
#1816 = ORIENTED_EDGE('',*,*,#1798,.F.);
#1817 = ORIENTED_EDGE('',*,*,#1363,.F.);
#1818 = PLANE('',#1819);
#1819 = AXIS2_PLACEMENT_3D('',#1820,#1821,#1822);
#1820 = CARTESIAN_POINT('',(-0.699999999999,4.150000000001,
    -8.992806499467E-16));
#1821 = DIRECTION('',(-1.,5.472807199144E-13,-1.215207312365E-28));
#1822 = DIRECTION('',(-0.,-2.22044604925E-16,-1.));
#1823 = ADVANCED_FACE('',(#1824),#1840,.F.);
#1824 = FACE_BOUND('',#1825,.F.);
#1825 = EDGE_LOOP('',(#1826,#1832,#1833,#1839));
#1826 = ORIENTED_EDGE('',*,*,#1827,.T.);
#1827 = EDGE_CURVE('',#1403,#1490,#1828,.T.);
#1828 = LINE('',#1829,#1830);
#1829 = CARTESIAN_POINT('',(5.799999999997,4.149999999999,
    -8.992806499467E-16));
#1830 = VECTOR('',#1831,1.);
#1831 = DIRECTION('',(-2.812758307739E-16,1.,-2.22044604925E-16));
#1832 = ORIENTED_EDGE('',*,*,#1489,.T.);
#1833 = ORIENTED_EDGE('',*,*,#1834,.F.);
#1834 = EDGE_CURVE('',#1405,#1492,#1835,.T.);
#1835 = LINE('',#1836,#1837);
#1836 = CARTESIAN_POINT('',(5.399999999997,4.149999999999,
    -8.992806499464E-16));
#1837 = VECTOR('',#1838,1.);
#1838 = DIRECTION('',(-2.812758307739E-16,1.,-2.22044604925E-16));
#1839 = ORIENTED_EDGE('',*,*,#1402,.F.);
#1840 = PLANE('',#1841);
#1841 = AXIS2_PLACEMENT_3D('',#1842,#1843,#1844);
#1842 = CARTESIAN_POINT('',(5.799999999997,4.149999999999,
    -8.992806499467E-16));
#1843 = DIRECTION('',(5.973231589958E-28,2.22044604925E-16,1.));
#1844 = DIRECTION('',(-1.,-2.812758307739E-16,5.973856147765E-28));
#1845 = ADVANCED_FACE('',(#1846),#1852,.F.);
#1846 = FACE_BOUND('',#1847,.F.);
#1847 = EDGE_LOOP('',(#1848,#1849,#1850,#1851));
#1848 = ORIENTED_EDGE('',*,*,#1834,.T.);
#1849 = ORIENTED_EDGE('',*,*,#1531,.T.);
#1850 = ORIENTED_EDGE('',*,*,#1466,.F.);
#1851 = ORIENTED_EDGE('',*,*,#1451,.F.);
#1852 = PLANE('',#1853);
#1853 = AXIS2_PLACEMENT_3D('',#1854,#1855,#1856);
#1854 = CARTESIAN_POINT('',(5.399999999997,4.149999999999,
    -8.992806499464E-16));
#1855 = DIRECTION('',(0.411437827764,3.181073691963E-16,0.911437827767)
  );
#1856 = DIRECTION('',(-0.911437827767,-1.65007882287E-16,0.411437827764)
  );
#1857 = ADVANCED_FACE('',(#1858),#1869,.T.);
#1858 = FACE_BOUND('',#1859,.T.);
#1859 = EDGE_LOOP('',(#1860,#1866,#1867,#1868));
#1860 = ORIENTED_EDGE('',*,*,#1861,.T.);
#1861 = EDGE_CURVE('',#1421,#1508,#1862,.T.);
#1862 = LINE('',#1863,#1864);
#1863 = CARTESIAN_POINT('',(5.43228756555,4.149999999999,0.15));
#1864 = VECTOR('',#1865,1.);
#1865 = DIRECTION('',(-2.812758307739E-16,1.,-2.22044604925E-16));
#1866 = ORIENTED_EDGE('',*,*,#1515,.T.);
#1867 = ORIENTED_EDGE('',*,*,#1548,.F.);
#1868 = ORIENTED_EDGE('',*,*,#1428,.F.);
#1869 = PLANE('',#1870);
#1870 = AXIS2_PLACEMENT_3D('',#1871,#1872,#1873);
#1871 = CARTESIAN_POINT('',(5.43228756555,4.149999999999,0.15));
#1872 = DIRECTION('',(0.411437827764,3.181073691963E-16,0.911437827767)
  );
#1873 = DIRECTION('',(-0.911437827767,-1.65007882287E-16,0.411437827764)
  );
#1874 = ADVANCED_FACE('',(#1875),#1886,.T.);
#1875 = FACE_BOUND('',#1876,.T.);
#1876 = EDGE_LOOP('',(#1877,#1883,#1884,#1885));
#1877 = ORIENTED_EDGE('',*,*,#1878,.T.);
#1878 = EDGE_CURVE('',#1413,#1500,#1879,.T.);
#1879 = LINE('',#1880,#1881);
#1880 = CARTESIAN_POINT('',(5.799999999997,4.149999999999,0.15));
#1881 = VECTOR('',#1882,1.);
#1882 = DIRECTION('',(-2.812758307739E-16,1.,-2.22044604925E-16));
#1883 = ORIENTED_EDGE('',*,*,#1507,.T.);
#1884 = ORIENTED_EDGE('',*,*,#1861,.F.);
#1885 = ORIENTED_EDGE('',*,*,#1420,.F.);
#1886 = PLANE('',#1887);
#1887 = AXIS2_PLACEMENT_3D('',#1888,#1889,#1890);
#1888 = CARTESIAN_POINT('',(5.799999999997,4.149999999999,0.15));
#1889 = DIRECTION('',(1.215831870172E-28,2.22044604925E-16,1.));
#1890 = DIRECTION('',(-1.,-2.812758307739E-16,1.216456427979E-28));
#1891 = ADVANCED_FACE('',(#1892),#1898,.T.);
#1892 = FACE_BOUND('',#1893,.T.);
#1893 = EDGE_LOOP('',(#1894,#1895,#1896,#1897));
#1894 = ORIENTED_EDGE('',*,*,#1827,.T.);
#1895 = ORIENTED_EDGE('',*,*,#1499,.T.);
#1896 = ORIENTED_EDGE('',*,*,#1878,.F.);
#1897 = ORIENTED_EDGE('',*,*,#1412,.F.);
#1898 = PLANE('',#1899);
#1899 = AXIS2_PLACEMENT_3D('',#1900,#1901,#1902);
#1900 = CARTESIAN_POINT('',(5.799999999997,4.149999999999,
    -8.992806499467E-16));
#1901 = DIRECTION('',(1.,2.812758307739E-16,-1.216456427979E-28));
#1902 = DIRECTION('',(1.215831870172E-28,2.22044604925E-16,1.));
#1903 = ADVANCED_FACE('',(#1904),#1924,.T.);
#1904 = FACE_BOUND('',#1905,.T.);
#1905 = EDGE_LOOP('',(#1906,#1915,#1916,#1917));
#1906 = ORIENTED_EDGE('',*,*,#1907,.F.);
#1907 = EDGE_CURVE('',#1563,#1908,#1910,.T.);
#1908 = VERTEX_POINT('',#1909);
#1909 = CARTESIAN_POINT('',(3.485762521642,2.514237478357,1.3));
#1910 = CIRCLE('',#1911,0.1);
#1911 = AXIS2_PLACEMENT_3D('',#1912,#1913,#1914);
#1912 = CARTESIAN_POINT('',(3.485762521642,2.514237478357,1.2));
#1913 = DIRECTION('',(0.,-1.,0.));
#1914 = DIRECTION('',(1.,0.,0.));
#1915 = ORIENTED_EDGE('',*,*,#1570,.T.);
#1916 = ORIENTED_EDGE('',*,*,#1907,.T.);
#1917 = ORIENTED_EDGE('',*,*,#1918,.F.);
#1918 = EDGE_CURVE('',#1908,#1908,#1919,.T.);
#1919 = CIRCLE('',#1920,0.9);
#1920 = AXIS2_PLACEMENT_3D('',#1921,#1922,#1923);
#1921 = CARTESIAN_POINT('',(2.585762521642,2.514237478357,1.3));
#1922 = DIRECTION('',(0.,0.,1.));
#1923 = DIRECTION('',(1.,0.,0.));
#1924 = TOROIDAL_SURFACE('',#1925,0.9,0.1);
#1925 = AXIS2_PLACEMENT_3D('',#1926,#1927,#1928);
#1926 = CARTESIAN_POINT('',(2.585762521642,2.514237478357,1.2));
#1927 = DIRECTION('',(0.,0.,1.));
#1928 = DIRECTION('',(1.,0.,0.));
#1929 = ADVANCED_FACE('',(#1930),#1933,.T.);
#1930 = FACE_BOUND('',#1931,.T.);
#1931 = EDGE_LOOP('',(#1932));
#1932 = ORIENTED_EDGE('',*,*,#1918,.T.);
#1933 = PLANE('',#1934);
#1934 = AXIS2_PLACEMENT_3D('',#1935,#1936,#1937);
#1935 = CARTESIAN_POINT('',(2.585762521642,2.514237478357,1.3));
#1936 = DIRECTION('',(0.,0.,1.));
#1937 = DIRECTION('',(1.,0.,0.));
#1938 = ( GEOMETRIC_REPRESENTATION_CONTEXT(3) 
GLOBAL_UNCERTAINTY_ASSIGNED_CONTEXT((#1942)) 
GLOBAL_UNIT_ASSIGNED_CONTEXT((#1939,#1940,#1941)) REPRESENTATION_CONTEXT
('Context #1','3D Context with UNIT and UNCERTAINTY') );
#1939 = ( LENGTH_UNIT() NAMED_UNIT(*) SI_UNIT(.MILLI.,.METRE.) );
#1940 = ( NAMED_UNIT(*) PLANE_ANGLE_UNIT() SI_UNIT($,.RADIAN.) );
#1941 = ( NAMED_UNIT(*) SI_UNIT($,.STERADIAN.) SOLID_ANGLE_UNIT() );
#1942 = UNCERTAINTY_MEASURE_WITH_UNIT(LENGTH_MEASURE(2.E-06),#1939,
  'distance_accuracy_value','confusion accuracy');
#1943 = PRODUCT_RELATED_PRODUCT_CATEGORY('part',$,(#7));
#1944 = MECHANICAL_DESIGN_GEOMETRIC_PRESENTATION_REPRESENTATION('',(
    #1945),#1938);
#1945 = STYLED_ITEM('color',(#1946),#15);
#1946 = PRESENTATION_STYLE_ASSIGNMENT((#1947,#1953));
#1947 = SURFACE_STYLE_USAGE(.BOTH.,#1948);
#1948 = SURFACE_SIDE_STYLE('',(#1949));
#1949 = SURFACE_STYLE_FILL_AREA(#1950);
#1950 = FILL_AREA_STYLE('',(#1951));
#1951 = FILL_AREA_STYLE_COLOUR('',#1952);
#1952 = COLOUR_RGB('',0.427500017561,0.470600003433,0.54119997188);
#1953 = CURVE_STYLE('',#1954,POSITIVE_LENGTH_MEASURE(0.1),#1955);
#1954 = DRAUGHTING_PRE_DEFINED_CURVE_FONT('continuous');
#1955 = COLOUR_RGB('',9.803921802644E-02,9.803921802644E-02,
  9.803921802644E-02);
ENDSEC;
END-ISO-10303-21;
